<svg width="23" height="23" viewBox="0 0 23 23" fill="none" xmlns="http://www.w3.org/2000/svg">
<path fill-rule="evenodd" clip-rule="evenodd" d="M3.67416 3.83317C3.38158 5.85631 3.09321 11.3202 7.38683 15.6139C11.6804 19.9075 17.1444 19.6191 19.1675 19.3265V15.1867L14.9165 14.4782L14.2747 15.7618C14.1123 16.0864 13.7805 16.2915 13.4175 16.2915V15.3332C13.4175 16.2915 13.417 16.2915 13.4166 16.2915L13.4156 16.2915L13.4134 16.2915L13.4086 16.2915L13.3967 16.2913C13.3879 16.2912 13.3772 16.2909 13.3646 16.2905C13.3395 16.2897 13.307 16.2883 13.2677 16.2856C13.189 16.2804 13.0826 16.2705 12.9526 16.2519C12.6926 16.2148 12.3364 16.1427 11.9165 16.0027C11.0735 15.7217 9.98194 15.1696 8.90654 14.0941C7.83113 13.0187 7.27896 11.9272 6.99794 11.0841C6.85799 10.6643 6.7859 10.3081 6.74876 10.0481C6.73018 9.91805 6.72029 9.81169 6.71505 9.73302C6.71243 9.69367 6.71096 9.66118 6.71015 9.63606C6.70974 9.6235 6.7095 9.61277 6.70936 9.60394L6.70922 9.59211L6.70919 9.58728L6.70918 9.58513L6.70918 9.58413C6.70918 9.58365 6.70918 9.58317 7.66752 9.58317H6.70918C6.70918 9.26275 6.86932 8.96353 7.13593 8.78579L9.36394 7.30045L7.97703 3.83317H3.67416ZM8.69643 10.049L10.4271 8.89521C11.1813 8.39245 11.4801 7.43016 11.1435 6.58862L9.75661 3.12134C9.46553 2.39366 8.76076 1.9165 7.97703 1.9165H3.62409C2.75344 1.9165 1.93389 2.52137 1.79096 3.46604C1.46579 5.61519 1.02319 11.9608 6.03154 16.9691C11.0399 21.9775 17.3855 21.5349 19.5347 21.2097C20.4793 21.0668 21.0842 20.2472 21.0842 19.3766V15.1867C21.0842 14.2497 20.4068 13.4501 19.4826 13.2961L15.2316 12.5876C14.4016 12.4492 13.5784 12.8684 13.2021 13.621L12.8701 14.2851C12.7657 14.2595 12.6492 14.2266 12.5226 14.1844C11.9282 13.9863 11.1031 13.5801 10.2618 12.7389C9.42057 11.8976 9.0144 11.0725 8.81625 10.478C8.76271 10.3174 8.72416 10.173 8.69643 10.049Z" fill="black"/>
</svg>
