<svg width="10" height="10" viewBox="0 0 10 10" fill="none" xmlns="http://www.w3.org/2000/svg">
<path d="M4.12739 7.5356C4.06176 7.53573 3.99675 7.52291 3.93608 7.49785C3.87542 7.4728 3.8203 7.43601 3.77389 7.3896L1.65289 5.2681C1.60511 5.22201 1.56698 5.16687 1.54073 5.10588C1.51448 5.0449 1.50065 4.9793 1.50002 4.91291C1.4994 4.84652 1.512 4.78067 1.5371 4.71921C1.5622 4.65774 1.59928 4.60189 1.6462 4.55491C1.69311 4.50793 1.74891 4.47077 1.81034 4.44558C1.87177 4.4204 1.9376 4.4077 2.00399 4.40823C2.07038 4.40876 2.136 4.42251 2.19702 4.44867C2.25804 4.47483 2.31324 4.51288 2.35939 4.5606L4.12689 6.3281L7.30939 3.1466C7.40315 3.05278 7.53033 3.00005 7.66297 3C7.7956 2.99995 7.92282 3.0526 8.01664 3.14635C8.11046 3.24011 8.1632 3.36729 8.16324 3.49992C8.16329 3.63256 8.11065 3.75978 8.01689 3.8536L4.48089 7.3896C4.43448 7.43601 4.37936 7.4728 4.3187 7.49785C4.25804 7.52291 4.19303 7.53573 4.12739 7.5356Z" fill="white"/>
</svg>
