<svg width="472" height="472" viewBox="0 0 472 472" fill="none" xmlns="http://www.w3.org/2000/svg">
<path fill-rule="evenodd" clip-rule="evenodd" d="M229.271 1.04131C152.027 3.33356 77.6603 43.5893 34.8173 114.133L92.6554 147.526C123.111 98.3601 175.087 70.0776 229.271 67.8532V1.04131ZM379.137 147.026C364.973 124.318 345.186 104.659 320.391 90.3429C295.514 75.9801 268.499 68.6728 241.665 67.8001V1C279.85 1.8792 318.362 12.0812 353.772 32.5251C389.1 52.9218 417.144 81.0904 436.99 113.624L379.137 147.026ZM384.737 316.159C412.132 265.118 410.588 205.854 385.305 157.776L443.163 124.371C479.92 192.453 482.291 277.094 442.575 349.552L384.737 316.159ZM241.665 405.1C295.71 403.244 347.695 375.455 378.486 326.861L436.339 360.263C393.148 430.228 318.769 469.982 241.665 471.9V405.1ZM93.2485 326.394C107.39 348.887 127.066 368.359 151.675 382.567C176.203 396.728 202.809 404.031 229.271 405.07V471.882C191.457 470.829 153.355 460.627 118.294 440.385C83.1517 420.096 55.2176 392.116 35.3902 359.799L93.2485 326.394ZM86.5131 158.29C59.8682 209.17 61.7452 267.975 87.0425 315.666L29.1897 349.068C-7.58172 281.374 -10.2917 197.194 28.6595 124.889L86.5131 158.29Z" fill="#D9D9D9"/>
</svg>
