<svg width="20" height="20" viewBox="0 0 20 20" fill="none" xmlns="http://www.w3.org/2000/svg">
<path d="M5.21925 0.0585938C4.90675 0.167969 4.71143 0.464844 4.47315 1.18359C4.08643 2.35547 3.89112 3.99219 3.97706 5.30078C4.07862 6.78125 4.40284 8.05078 4.99659 9.27734C5.46925 10.2578 5.90284 10.875 6.59815 11.5625C7.24268 12.1992 7.9419 12.6445 8.6294 12.8594L8.90675 12.9453V15.3945V17.8477L8.03956 17.8594C7.22706 17.8711 7.15675 17.8789 7.00831 17.957C6.17237 18.4062 6.22706 19.5938 7.09815 19.9219C7.30128 19.9961 7.39503 20 10.0005 20C12.606 20 12.6997 19.9961 12.9028 19.9219C13.7739 19.5938 13.8286 18.4062 12.9927 17.957C12.8442 17.8789 12.7739 17.8711 11.9653 17.8594L11.0942 17.8477V15.3945V12.9453L11.3716 12.8594C12.0591 12.6445 12.7583 12.1992 13.4028 11.5625C14.0982 10.875 14.5317 10.2578 15.0044 9.27734C15.5982 8.05078 15.9224 6.78125 16.0239 5.30078C16.1294 3.70703 15.7974 1.58203 15.2739 0.542969C15.1411 0.285156 14.9419 0.0976562 14.7388 0.0429688C14.6372 0.015625 13.0825 0 9.98096 0C6.16846 0.00390625 5.34425 0.0117188 5.21925 0.0585938ZM14.0786 1.98047C14.3247 2.89062 14.4497 3.98438 14.4185 4.96875L14.4146 5.15625H10.0005H5.58643L5.58253 4.96875C5.55128 3.98438 5.67628 2.89062 5.92237 1.98047L6.02393 1.60156H10.0005H13.9771L14.0786 1.98047Z" fill="black"/>
</svg>
