<svg width="23" height="23" viewBox="0 0 23 23" fill="none" xmlns="http://www.w3.org/2000/svg">
<path fill-rule="evenodd" clip-rule="evenodd" d="M8.32325 2.92418C8.51996 2.85861 8.73264 2.85861 8.92935 2.92418L14.3763 4.73983L18.5619 3.34464C19.803 2.93094 21.0846 3.85471 21.0846 5.16295V16.5593C21.0846 17.3843 20.5567 18.1167 19.7741 18.3776L14.6794 20.0758C14.4826 20.1414 14.27 20.1414 14.0733 20.0758L8.6263 18.2602L4.44074 19.6554C3.19964 20.0691 1.91797 19.1453 1.91797 17.8371V6.44073C1.91797 5.61574 2.44588 4.8833 3.22853 4.62242L8.32325 2.92418ZM9.58464 16.5593L13.418 17.837V6.44073L9.58464 5.16295V16.5593ZM7.66797 5.16295V16.5593L3.83464 17.8371V6.44073L7.66797 5.16295ZM15.3346 6.44073V17.837L19.168 16.5593V5.16295L15.3346 6.44073Z" fill="black"/>
</svg>
