<svg width="80" height="80" viewBox="0 0 80 80" fill="none" xmlns="http://www.w3.org/2000/svg">
<path d="M59.5212 40.6934C59.5212 39.4254 59.4065 38.2217 59.2097 37.05H40.6788V44.2886H51.2889C50.8134 46.664 49.4195 48.6702 47.3532 50.0345V54.8494H53.6832C57.3894 51.495 59.5212 46.5516 59.5212 40.6934Z" fill="white"/>
<path d="M40.6788 28.6238C43.5814 28.6238 46.1725 29.6028 48.2223 31.5128L53.8308 26.0237C50.4362 22.91 45.9921 21 40.6788 21C32.9877 21 26.3461 25.3335 23.1155 31.6251L29.6423 36.5846C31.2002 32.0103 35.5459 28.6238 40.6788 28.6238Z" fill="white"/>
<path fill-rule="evenodd" clip-rule="evenodd" d="M40.6788 59.52C32.9877 59.52 26.3461 55.1865 23.1155 48.8949L29.6423 43.9355C31.2002 48.5097 35.5459 51.8962 40.6788 51.8962C43.3354 51.8962 45.5821 51.1901 47.3532 50.0345L53.6832 54.8494C50.4362 57.7866 45.9921 59.52 40.6788 59.52ZM29.6423 36.5846V31.6251H23.1155L29.6423 36.5846Z" fill="white"/>
<path d="M23.1155 43.9355H29.6423C29.2323 42.7799 29.0191 41.544 29.0191 40.26C29.0191 38.976 29.2487 37.7402 29.6423 36.5846L23.1155 31.6251C21.7708 34.2252 21 37.1463 21 40.26C21 43.3737 21.7708 46.2948 23.1155 48.8949V43.9355Z" fill="white"/>
<path d="M29.6423 43.9355H23.1155V48.8949L29.6423 43.9355Z" fill="white"/>
</svg>
