<svg width="22" height="22" viewBox="0 0 22 22" fill="none" xmlns="http://www.w3.org/2000/svg">
<path fill-rule="evenodd" clip-rule="evenodd" d="M17.6972 6.33231C16.2354 4.83727 13.8299 4.83727 12.3681 6.3323L11.4277 7.29404C11.315 7.40933 11.1606 7.47432 10.9993 7.47432C10.8381 7.47432 10.6836 7.40933 10.5709 7.29404L9.63053 6.33231C8.16872 4.83727 5.76322 4.83727 4.30141 6.33231C2.88533 7.78057 2.88533 10.0947 4.30141 11.543L10.809 18.1985C10.9134 18.3053 11.0852 18.3053 11.1896 18.1985L17.6972 11.543C19.1133 10.0947 19.1133 7.78057 17.6972 6.33231ZM18.554 5.49453C16.6221 3.51875 13.4431 3.51875 11.5113 5.49453L10.9993 6.01812L10.4874 5.49453C8.55548 3.51875 5.37647 3.51875 3.4446 5.49453C1.57316 7.4085 1.57316 10.4668 3.4446 12.3808L9.95217 19.0362C10.5266 19.6238 11.472 19.6238 12.0464 19.0362L18.554 12.3808C20.4255 10.4668 20.4255 7.4085 18.554 5.49453Z" fill="black"/>
</svg>
