<svg width="26" height="26" viewBox="0 0 26 26" fill="none" xmlns="http://www.w3.org/2000/svg">
<path fill-rule="evenodd" clip-rule="evenodd" d="M11.3078 7.55643C9.62113 5.83145 6.84565 5.83145 5.15901 7.55643C3.52512 9.22745 3.52512 11.8975 5.15901 13.5686L12.8498 21.4341C12.9322 21.5184 13.0679 21.5184 13.1503 21.4341L20.8411 13.5686C22.475 11.8975 22.475 9.22745 20.8411 7.55643C19.1545 5.83145 16.379 5.83145 14.6923 7.55643L13.581 8.69303C13.4281 8.84936 13.2187 8.93749 13.0001 8.93749C12.7814 8.93749 12.572 8.84936 12.4191 8.69303L11.3078 7.55643ZM22.003 6.42036C24.2544 8.7229 24.2544 12.4021 22.003 14.7046L14.3122 22.5702C13.5924 23.3064 12.4078 23.3064 11.6879 22.5702L3.99712 14.7046C1.74575 12.4021 1.74575 8.7229 3.99712 6.42036C6.32119 4.04347 10.1456 4.04347 12.4697 6.42036L13.0001 6.96281L13.5305 6.42036C15.8545 4.04347 19.6789 4.04347 22.003 6.42036Z" fill="#151E28"/>
</svg>
