<svg width="80" height="80" viewBox="0 0 80 80" fill="none" xmlns="http://www.w3.org/2000/svg">
<path d="M43.8123 23.4766C41.3296 23.4815 38.893 24.1314 36.7527 25.3597C34.6124 26.588 32.8455 28.3504 31.6334 30.4658C30.5902 29.9698 29.4453 29.7113 28.2849 29.7097C26.4662 29.7143 24.7084 30.3496 23.3248 31.5021C21.9413 32.6547 21.0221 34.2496 20.7311 36.0024C18.81 36.7877 17.1695 38.1099 16.0157 39.8028C14.8619 41.4956 14.2462 43.4837 14.2461 45.5171C14.2488 48.2521 15.3639 50.8742 17.3462 52.8068C19.3285 54.7393 22.0157 55.8242 24.817 55.8229C25.2604 55.819 25.703 55.7878 26.1423 55.7296H55.5145C55.6687 55.7405 55.8232 55.7478 55.9778 55.7515C56.1251 55.7475 56.2724 55.7402 56.4193 55.7296H57.1227V55.6786C59.5143 55.4024 61.7194 54.2752 63.3201 52.5104C64.9208 50.7457 65.8059 48.4662 65.8076 46.104V46.0855C65.8021 43.842 64.9997 41.6706 63.5384 39.9448C62.0772 38.219 60.0486 37.0467 57.8015 36.6296C57.6681 33.0954 56.1354 29.7495 53.5262 27.2962C50.917 24.8429 47.4347 23.4736 43.8123 23.4766Z" fill="url(#paint0_linear_0_7717)"/>
<defs>
<linearGradient id="paint0_linear_0_7717" x1="65.9642" y1="46.1301" x2="14.2275" y2="45.3992" gradientUnits="userSpaceOnUse">
<stop stop-color="white"/>
<stop offset="1" stop-color="white"/>
</linearGradient>
</defs>
</svg>
