<svg width="19" height="18" viewBox="0 0 19 18" fill="none" xmlns="http://www.w3.org/2000/svg">
<path d="M9.95989 0C11.555 0.00318145 11.899 0.0166893 12.7158 0.0540969C13.6745 0.0980102 14.3296 0.248047 14.9005 0.471273C15.4933 0.701818 15.9946 1.00921 16.496 1.51056C16.9937 2.00824 17.3011 2.51324 17.5316 3.10241C17.7512 3.67329 17.9049 4.32833 17.9488 5.2871C17.9894 6.17485 18.0019 6.50415 18.0035 8.48859V9.50695C18.0019 11.4914 17.9894 11.8207 17.9488 12.7084C17.9049 13.6672 17.7548 14.3223 17.5316 14.8931C17.3011 15.486 16.9937 15.9873 16.4923 16.4886C15.991 16.99 15.4896 17.2974 14.8968 17.5279C14.3259 17.7475 13.6709 17.9012 12.7121 17.9451C11.7533 17.989 11.4459 18 9.00144 18L8.73848 18C6.53326 17.9991 6.21402 17.9874 5.29076 17.9451C4.33198 17.9012 3.67694 17.7512 3.10607 17.5279C2.51324 17.2974 2.0119 16.99 1.51056 16.4886C1.00921 15.9873 0.701818 15.486 0.471273 14.8931C0.251707 14.3223 0.0980068 13.6672 0.0540934 12.7084C0.0166858 11.8917 0.00318145 11.5477 0 9.95257V8.04297C0.00318145 6.44789 0.0166858 6.10383 0.0540934 5.2871C0.0980068 4.32833 0.248048 3.67329 0.471273 3.10241C0.701818 2.51324 1.00921 2.00824 1.51056 1.51056C2.0119 1.00921 2.51324 0.701818 3.10607 0.471273C3.67694 0.248047 4.33198 0.0943508 5.29442 0.0540969C6.11115 0.0166893 6.45521 0.00318145 8.05029 0H9.95989ZM9.26 1.62037H8.74287C6.57513 1.62093 6.27664 1.62928 5.36395 1.67157C4.48568 1.71182 4.00995 1.8582 3.69158 1.98262C3.27074 2.1473 2.97067 2.34125 2.65596 2.65596C2.34125 2.97067 2.1473 3.27075 1.98262 3.69158C1.8582 4.00995 1.71182 4.48568 1.67157 5.36395C1.63132 6.31174 1.62034 6.59718 1.62034 9.00143C1.62034 11.4057 1.62766 11.6911 1.67157 12.6389C1.71182 13.5172 1.8582 13.9929 1.98262 14.3113C2.1473 14.7321 2.34125 15.0322 2.65596 15.3469C2.97067 15.6616 3.27074 15.8556 3.69158 16.0202C4.00995 16.1447 4.48568 16.291 5.36395 16.3313C6.31174 16.3715 6.59718 16.3825 9.00144 16.3825L9.26 16.3825C11.4277 16.3819 11.7262 16.3736 12.6389 16.3313C13.5172 16.291 13.9929 16.1447 14.3113 16.0202C14.7321 15.8556 15.0322 15.6616 15.3469 15.3469C15.6616 15.0322 15.8556 14.7321 16.0202 14.3113C16.1447 13.9929 16.291 13.5172 16.3313 12.6389C16.3715 11.6911 16.3825 11.4057 16.3825 9.00143L16.3825 8.74287C16.3819 6.57513 16.3736 6.27664 16.3313 5.36395C16.291 4.48568 16.1447 4.00995 16.0202 3.69158C15.8556 3.27075 15.6616 2.97067 15.3469 2.65596C15.0322 2.34125 14.7321 2.1473 14.3113 1.98262C13.9929 1.8582 13.5172 1.71182 12.6389 1.67157C11.6911 1.62766 11.4057 1.62034 9.00144 1.62034L9.26 1.62037ZM9.00144 4.37956C11.5557 4.37956 13.6233 6.4508 13.6233 9.00143C13.6233 11.5521 11.5521 13.6233 9.00144 13.6233C6.4508 13.6233 4.37956 11.5557 4.37956 9.00143C4.37956 6.44714 6.44714 4.37956 9.00144 4.37956ZM9.00144 6.00069C7.34371 6.00069 6.00069 7.34371 6.00069 9.00143C6.00069 10.6592 7.34371 12.0022 9.00144 12.0022C10.6592 12.0022 12.0022 10.6592 12.0022 9.00143C12.0022 7.34371 10.6592 6.00069 9.00144 6.00069ZM13.8099 3.11705C14.4062 3.11705 14.8895 3.60037 14.8895 4.19659C14.8895 4.7928 14.4062 5.27612 13.8099 5.27612C13.2137 5.27612 12.7304 4.7928 12.7304 4.19659C12.7304 3.60037 13.2137 3.11705 13.8099 3.11705Z" fill="black"/>
</svg>
