<svg width="148" height="16" viewBox="0 0 148 16" fill="none" xmlns="http://www.w3.org/2000/svg">
<g clip-path="url(#clip0_1_358)">
<path d="M9.49732 15.5914C9.92349 15.4746 10.2279 15.2994 10.5932 15.1242C10.8976 14.949 11.202 14.7155 11.3846 14.4819C11.5673 14.2483 11.7499 13.9563 11.8717 13.7227C11.9934 13.4308 12.0543 13.1972 12.0543 12.9052C12.0543 12.6133 11.9934 12.3213 11.8717 12.0293C11.7499 11.7373 11.5673 11.5038 11.3237 11.2702C11.0802 11.0366 10.7149 10.8614 10.3496 10.6863C9.92349 10.5111 9.43644 10.3359 8.82764 10.2775L7.85356 10.1023L8.82764 9.86873C9.67997 9.63516 10.3496 9.28479 10.7758 8.87603C11.202 8.40888 11.4455 7.94173 11.4455 7.35779C11.4455 6.42348 10.9585 5.66435 9.92349 5.13881C8.88852 4.61326 7.30563 4.32129 5.2357 4.32129H0C0.182641 4.37968 0.304401 4.43808 0.487042 4.55487C0.669683 4.73005 0.791444 4.90523 0.913204 5.1972C0.974085 5.43078 1.03496 5.78114 1.03496 6.2483V14.0147C1.03496 14.4235 0.974085 14.7738 0.913204 15.0658C0.852324 15.3578 0.730563 15.533 0.547923 15.7082C0.426162 15.8249 0.243521 15.9417 0.0608803 16.0001H5.78363C7.42739 15.9417 8.70588 15.8249 9.49732 15.5914ZM2.61785 4.61326L2.80049 4.55487C3.4093 4.43808 4.07898 4.32129 4.87042 4.32129C5.60099 4.32129 6.27067 4.37968 6.81859 4.55487C7.36651 4.73005 7.85356 4.90523 8.21884 5.13881C8.58412 5.37238 8.88852 5.72275 9.13204 6.01472C9.31468 6.36508 9.43644 6.71545 9.43644 7.12421C9.43644 7.94173 9.07116 8.58406 8.3406 9.10961C7.61004 9.57676 6.51419 9.81034 4.9313 9.81034C4.50514 9.81034 4.07898 9.81034 3.7137 9.75195C3.34842 9.75195 3.04401 9.69355 2.73961 9.63516L2.49609 9.57676V4.61326H2.61785ZM2.86137 15.4746L2.67873 15.4162V10.0439L2.86137 9.98552C3.04401 10.0439 3.34842 9.98552 3.65282 9.98552C3.95722 9.98552 4.38338 9.98552 4.87042 9.98552C5.72275 9.98552 6.45331 10.0439 7.06211 10.2191C7.67092 10.3943 8.21884 10.5695 8.645 10.8614C9.07116 11.1534 9.37556 11.4454 9.61909 11.8541C9.80173 12.2045 9.92349 12.6133 9.92349 13.022C9.92349 13.3724 9.80173 13.7811 9.61909 14.1315C9.43644 14.4819 9.13204 14.7738 8.76676 15.0074C8.40148 15.241 7.91444 15.4746 7.36651 15.5914C6.81859 15.7082 6.14891 15.8249 5.47923 15.8249C4.56602 15.7665 3.7137 15.6498 2.86137 15.4746Z" fill="#1A1A1A"/>
<path d="M22.5875 14.599C22.4657 14.8326 22.2831 15.0662 22.1004 15.2414C21.9178 15.4166 21.6743 15.5333 21.4307 15.6501C21.2481 15.7085 21.0655 15.7669 20.8828 15.7669H24.4139C24.353 15.7669 24.2921 15.7669 24.2312 15.7085C23.9877 15.6501 23.8051 15.5917 23.6224 15.5333C23.4398 15.475 23.318 15.3582 23.2571 15.2414C23.1963 15.1246 23.1963 15.0078 23.1963 14.891C23.1963 14.6574 23.318 14.2487 23.5615 13.7815L24.6574 11.7961H30.8063L31.7804 13.6063C32.0848 14.1903 32.2674 14.599 32.2674 14.891C32.2674 15.0662 32.2065 15.3582 31.8413 15.5333C31.7195 15.5917 31.476 15.7085 31.2325 15.7085H35.7376C35.6767 15.7085 35.6158 15.7085 35.555 15.6501C35.3114 15.5917 35.0679 15.475 34.8244 15.2998C34.6418 15.1246 34.3982 14.9494 34.2156 14.6574C34.033 14.4239 33.8503 14.0735 33.6068 13.6647L28.432 4.14648H28.3102L23.0745 13.7231C22.8919 14.0735 22.7092 14.3655 22.5875 14.599ZM27.8232 6.19028L30.7454 11.6209H24.84L27.8232 6.19028Z" fill="#1A1A1A"/>
<path d="M56.7395 14.1317C56.496 14.4821 56.2525 14.7156 55.9481 14.9492C55.6437 15.1244 55.2784 15.2996 54.9131 15.358C54.5478 15.4164 54.1217 15.4748 53.6346 15.4748H46.9987L56.9222 4.37988H46.3899C46.3899 4.37988 46.2681 6.2485 46.3899 6.01492C46.5116 5.72295 46.6943 5.43098 46.9378 5.2558C47.1813 5.08061 47.4857 4.90543 47.9119 4.84704C48.2771 4.78864 48.8251 4.73025 49.4339 4.73025H54.7305L44.7461 15.7084V15.7667H56.6786C56.6786 15.7667 56.9222 13.8981 56.7395 14.1317Z" fill="#1A1A1A"/>
<path d="M76.8909 4.55467C77.0127 4.61306 77.1344 4.67145 77.2562 4.78824C77.3779 4.90503 77.4388 5.02182 77.4997 5.13861C77.5606 5.2554 77.5606 5.43058 77.6215 5.60576C77.6215 5.78094 77.6215 6.01452 77.6215 6.30649V9.86853H70.1332V6.30649C70.1332 5.72255 70.1941 5.31379 70.255 5.08021C70.3158 4.96343 70.4376 4.84664 70.5594 4.72985C70.6811 4.67145 70.8029 4.55467 70.9855 4.49627C71.1073 4.43788 71.229 4.43788 71.3508 4.37948H67.2109C67.3936 4.43788 67.5762 4.49627 67.698 4.55467C67.8806 4.61306 68.0024 4.67145 68.0633 4.78824C68.185 4.90503 68.2459 4.96343 68.3068 5.13861C68.3677 5.2554 68.3677 5.43058 68.4285 5.60576C68.4285 5.78094 68.4285 6.01452 68.4285 6.30649V13.8977C68.4285 14.6569 68.3068 15.124 68.1241 15.3576C67.9415 15.5912 67.6371 15.708 67.2718 15.7663H71.4117C71.229 15.708 71.0464 15.6496 70.9246 15.5912C70.8029 15.5328 70.6811 15.4744 70.5594 15.3576C70.4376 15.2992 70.3767 15.1824 70.3158 15.0072C70.255 14.8904 70.255 14.7153 70.1941 14.5401C70.1941 14.3649 70.1941 14.1313 70.1941 13.8393V10.0437H77.6823V13.8393C77.6823 14.2481 77.6215 14.5985 77.5606 14.832C77.4997 15.124 77.3779 15.2992 77.1953 15.4744C77.0127 15.5912 76.8909 15.708 76.6474 15.708H80.6046C80.422 15.6496 80.2393 15.5912 80.1176 15.5328C79.9349 15.4744 79.8132 15.416 79.7523 15.2992C79.6305 15.2408 79.5696 15.0656 79.5088 14.9488C79.4479 14.832 79.4479 14.6569 79.387 14.4817C79.387 14.3065 79.387 14.0729 79.387 13.7809V6.1897C79.387 5.54737 79.4479 5.197 79.5088 4.96343C79.5696 4.84664 79.6914 4.72985 79.8132 4.61306C79.9349 4.55467 80.0567 4.43788 80.2393 4.37948C80.3611 4.32109 80.4828 4.32109 80.6046 4.2627H76.4647C76.5865 4.43788 76.7691 4.49627 76.8909 4.55467Z" fill="#1A1A1A"/>
<path d="M90.8941 14.599C90.7723 14.8326 90.5897 15.0662 90.4071 15.2414C90.2244 15.4166 89.9809 15.5333 89.7374 15.6501C89.5547 15.7085 89.3721 15.7669 89.1895 15.7669H92.7205C92.6596 15.7669 92.5987 15.7669 92.5379 15.7085C92.2943 15.6501 92.1117 15.5917 91.9291 15.5333C91.7464 15.475 91.6247 15.3582 91.5638 15.2414C91.5029 15.1246 91.5029 15.0078 91.5029 14.891C91.5029 14.6574 91.6247 14.2487 91.8682 13.7815L92.964 11.7961H99.1129L100.087 13.6063C100.391 14.1903 100.574 14.599 100.574 14.891C100.574 15.0662 100.513 15.3582 100.148 15.5333C100.026 15.5917 99.7826 15.7085 99.5391 15.7085H104.044C103.983 15.7085 103.922 15.7085 103.862 15.6501C103.618 15.5917 103.375 15.475 103.131 15.2998C102.948 15.1246 102.705 14.9494 102.522 14.6574C102.34 14.4239 102.157 14.0735 101.913 13.6647L96.7995 4.14648H96.6777L91.442 13.7231C91.1985 14.0735 91.0767 14.3655 90.8941 14.599ZM96.1298 6.19028L99.0521 11.6209H93.1467L96.1298 6.19028Z" fill="#1A1A1A"/>
<path d="M126.265 4.37988H123.647C123.83 4.43828 124.013 4.49667 124.195 4.61346C124.378 4.73025 124.5 4.96382 124.561 5.1974C124.621 5.43098 124.682 5.78134 124.682 6.1901V13.4894L115.124 4.37988H112.08C112.141 4.37988 112.141 4.37988 112.141 4.37988C112.384 4.43828 112.567 4.49667 112.75 4.55507C112.932 4.61346 113.054 4.67185 113.237 4.78864C113.359 4.84704 113.541 4.96382 113.663 5.08061C113.846 5.1974 114.028 5.37258 114.211 5.60616L114.272 5.66455V13.9565C114.272 14.3653 114.211 14.6573 114.15 14.9492C114.089 15.2412 113.967 15.4164 113.785 15.5332C113.602 15.65 113.419 15.7667 113.237 15.8251H115.794C115.611 15.7667 115.428 15.7084 115.307 15.5916C115.124 15.4748 115.002 15.2412 114.941 15.0076C114.881 14.774 114.82 14.4237 114.82 14.0149V6.1901L125.108 16.0003H125.169V6.2485C125.169 5.83974 125.23 5.54777 125.291 5.2558C125.352 5.02222 125.474 4.78864 125.656 4.67185C125.839 4.55507 126.022 4.43828 126.265 4.37988Z" fill="#1A1A1A"/>
<path d="M147.025 14.774C146.843 14.9492 146.66 15.066 146.477 15.1244C146.295 15.2412 146.051 15.2996 145.869 15.358C145.625 15.4164 145.382 15.4748 145.077 15.4748C144.773 15.4748 144.408 15.4748 143.981 15.4748H141.424C141.059 15.4748 140.816 15.4748 140.633 15.4164C140.389 15.358 140.268 15.2996 140.146 15.1828C140.024 15.066 139.963 14.8908 139.963 14.6573C139.963 14.4821 139.963 14.2485 139.963 13.9565V9.86893H143.494C143.738 9.86893 143.92 9.86893 144.103 9.86893V9.57696C143.92 9.57696 143.738 9.63536 143.494 9.63536H139.963V4.67185H144.347C144.834 4.67185 145.321 4.67185 145.625 4.73025C145.99 4.78864 146.295 4.84704 146.538 5.02222C146.782 5.1974 146.965 5.43098 147.086 5.66455C147.147 5.78134 147.208 5.95653 147.269 6.13171V4.37988H137.102C137.406 4.43828 137.711 4.55507 137.893 4.73025C138.137 4.96382 138.259 5.43098 138.259 6.2485V13.8981C138.259 14.4821 138.198 14.8908 138.137 15.1244C138.076 15.2412 137.954 15.358 137.832 15.4748C137.711 15.5916 137.528 15.65 137.406 15.7084C137.285 15.7667 137.163 15.7667 137.041 15.8251H147.391L148.121 13.6062C147.512 14.3069 147.452 14.4821 147.025 14.774Z" fill="#1A1A1A"/>
<path d="M31.2916 0H33.4833L31.1089 2.45255H29.4043L31.2916 0Z" fill="#1A1A1A"/>
</g>
<defs>
<clipPath id="clip0_1_358">
<rect width="148" height="16" fill="white"/>
</clipPath>
</defs>
</svg>
