<svg width="40" height="40" viewBox="0 0 40 40" fill="none" xmlns="http://www.w3.org/2000/svg">
<mask id="path-1-outside-1_6_11348" maskUnits="userSpaceOnUse" x="0.882812" y="0.999023" width="39" height="39" fill="black">
<rect fill="white" x="0.882812" y="0.999023" width="39" height="39"/>
<path fill-rule="evenodd" clip-rule="evenodd" d="M5.39067 36.3315H37.9998V38.4165H4.01494V38.4174H1.88281V38.4165V36.3315V3.09757L4.01494 3.09757L4.01494 34.7281L36.4601 2.99902L37.9677 4.47339L5.39067 36.3315Z"/>
</mask>
<path fill-rule="evenodd" clip-rule="evenodd" d="M5.39067 36.3315H37.9998V38.4165H4.01494V38.4174H1.88281V38.4165V36.3315V3.09757L4.01494 3.09757L4.01494 34.7281L36.4601 2.99902L37.9677 4.47339L5.39067 36.3315Z" fill="black"/>
<path d="M37.9998 36.3315H38.9998V35.3315H37.9998V36.3315ZM5.39067 36.3315L4.69149 35.6165L2.93784 37.3315H5.39067V36.3315ZM37.9998 38.4165V39.4165H38.9998V38.4165H37.9998ZM4.01494 38.4165V37.4165H3.01494V38.4165H4.01494ZM4.01494 38.4174V39.4174H5.01494V38.4174H4.01494ZM1.88281 38.4174H0.882812V39.4174H1.88281V38.4174ZM1.88281 3.09757L1.88281 2.09757L0.882812 2.09757V3.09757H1.88281ZM4.01494 3.09757L5.01494 3.09757L5.01494 2.09757L4.01494 2.09757L4.01494 3.09757ZM4.01494 34.7281L3.01494 34.7281L3.01494 37.1047L4.71411 35.443L4.01494 34.7281ZM36.4601 2.99902L37.1593 2.28407L36.4601 1.60033L35.7609 2.28407L36.4601 2.99902ZM37.9677 4.47339L38.6669 5.18834L39.398 4.47339L38.6669 3.75844L37.9677 4.47339ZM37.9998 35.3315H5.39067V37.3315H37.9998V35.3315ZM38.9998 38.4165V36.3315H36.9998V38.4165H38.9998ZM4.01494 39.4165H37.9998V37.4165H4.01494V39.4165ZM5.01494 38.4174V38.4165H3.01494V38.4174H5.01494ZM1.88281 39.4174H4.01494V37.4174H1.88281V39.4174ZM0.882812 38.4165V38.4174H2.88281V38.4165H0.882812ZM0.882812 36.3315V38.4165H2.88281V36.3315H0.882812ZM0.882812 3.09757V36.3315H2.88281V3.09757H0.882812ZM4.01494 2.09757L1.88281 2.09757L1.88281 4.09757L4.01494 4.09757L4.01494 2.09757ZM5.01494 34.7281L5.01494 3.09757L3.01494 3.09757L3.01494 34.7281L5.01494 34.7281ZM4.71411 35.443L37.1593 3.71398L35.7609 2.28407L3.31577 34.0131L4.71411 35.443ZM35.7609 3.71398L37.2686 5.18834L38.6669 3.75844L37.1593 2.28407L35.7609 3.71398ZM37.2686 3.75844L4.69149 35.6165L6.08984 37.0464L38.6669 5.18834L37.2686 3.75844Z" fill="black" mask="url(#path-1-outside-1_6_11348)"/>
</svg>
