<svg width="23" height="23" viewBox="0 0 23 23" fill="none" xmlns="http://www.w3.org/2000/svg">
<path fill-rule="evenodd" clip-rule="evenodd" d="M8.3213 2.92418C8.51801 2.85861 8.73069 2.85861 8.9274 2.92418L14.3743 4.73983L18.5599 3.34464C19.801 2.93094 21.0827 3.85471 21.0827 5.16295V16.5593C21.0827 17.3843 20.5548 18.1167 19.7721 18.3776L14.6774 20.0758C14.4807 20.1414 14.268 20.1414 14.0713 20.0758L8.62435 18.2602L4.43879 19.6554C3.19768 20.0691 1.91602 19.1453 1.91602 17.8371V6.44073C1.91602 5.61574 2.44392 4.8833 3.22658 4.62242L8.3213 2.92418ZM9.58268 16.5593L13.416 17.837V6.44073L9.58268 5.16295V16.5593ZM7.66602 5.16295V16.5593L3.83268 17.8371V6.44073L7.66602 5.16295ZM15.3327 6.44073V17.837L19.166 16.5593V5.16295L15.3327 6.44073Z" fill="black"/>
</svg>
