<svg width="174" height="21" viewBox="0 0 174 21" fill="none" xmlns="http://www.w3.org/2000/svg">
<path d="M11.1566 20.4636C11.6572 20.3103 12.0148 20.0804 12.4439 19.8505C12.8015 19.6205 13.1591 19.314 13.3736 19.0074C13.5882 18.7008 13.8027 18.3176 13.9457 18.0111C14.0888 17.6279 14.1603 17.3213 14.1603 16.9381C14.1603 16.5549 14.0888 16.1717 13.9457 15.7885C13.8027 15.4053 13.5882 15.0987 13.3021 14.7921C13.016 14.4856 12.5869 14.2557 12.1578 14.0257C11.6572 13.7958 11.0851 13.5659 10.3699 13.4893L9.22565 13.2593L10.3699 12.9528C11.3711 12.6462 12.1578 12.1864 12.6585 11.6499C13.1591 11.0367 13.4451 10.4236 13.4451 9.6572C13.4451 8.43095 12.873 7.43462 11.6572 6.74485C10.4414 6.05508 8.582 5.67188 6.15043 5.67188H0C0.21455 5.74852 0.357583 5.82516 0.572133 5.97844C0.786683 6.20836 0.929717 6.43828 1.07275 6.82149C1.14427 7.12805 1.21578 7.5879 1.21578 8.20103V18.3943C1.21578 18.9308 1.14427 19.3906 1.07275 19.7738C1.00123 20.157 0.8582 20.3869 0.64365 20.6169C0.500617 20.7701 0.286067 20.9234 0.0715167 21.0001H6.79408C8.72503 20.9234 10.2269 20.7701 11.1566 20.4636ZM3.07522 6.05508L3.28977 5.97844C4.00493 5.82516 4.79162 5.67188 5.72133 5.67188C6.57953 5.67188 7.36622 5.74852 8.00987 5.97844C8.65352 6.20836 9.22565 6.43828 9.65475 6.74485C10.0838 7.05141 10.4414 7.51126 10.7275 7.89446C10.942 8.35431 11.0851 8.81415 11.0851 9.35064C11.0851 10.4236 10.656 11.2667 9.79778 11.9564C8.93958 12.5696 7.65228 12.8761 5.79285 12.8761C5.29223 12.8761 4.79162 12.8761 4.36252 12.7995C3.93342 12.7995 3.57583 12.7228 3.21825 12.6462L2.93218 12.5696V6.05508H3.07522ZM3.36128 20.3103L3.14673 20.2337V13.1827L3.36128 13.106C3.57583 13.1827 3.93342 13.106 4.291 13.106C4.64858 13.106 5.1492 13.106 5.72133 13.106C6.72257 13.106 7.58077 13.1827 8.29593 13.4126C9.0111 13.6425 9.65475 13.8725 10.1554 14.2557C10.656 14.6389 11.0136 15.0221 11.2996 15.5586C11.5142 16.0184 11.6572 16.5549 11.6572 17.0914C11.6572 17.5512 11.5142 18.0877 11.2996 18.5476C11.0851 19.0074 10.7275 19.3906 10.2984 19.6972C9.8693 20.0037 9.29717 20.3103 8.65352 20.4636C8.00987 20.6169 7.22318 20.7701 6.4365 20.7701C5.36375 20.6935 4.36252 20.5402 3.36128 20.3103Z" fill="#F9F6F2"/>
<path d="M26.5318 19.1601C26.3887 19.4667 26.1742 19.7733 25.9596 20.0032C25.7451 20.2331 25.459 20.3864 25.1729 20.5397C24.9584 20.6163 24.7438 20.693 24.5293 20.693H28.6773C28.6057 20.693 28.5342 20.693 28.4627 20.6163C28.1766 20.5397 27.9621 20.463 27.7475 20.3864C27.533 20.3097 27.39 20.1565 27.3184 20.0032C27.2469 19.8499 27.2469 19.6966 27.2469 19.5433C27.2469 19.2368 27.39 18.7003 27.676 18.0872L28.9633 15.4814H36.1865L37.3308 17.8572C37.6884 18.6236 37.9029 19.1601 37.9029 19.5433C37.9029 19.7733 37.8314 20.1565 37.4023 20.3864C37.2593 20.463 36.9732 20.6163 36.6871 20.6163H41.9794C41.9079 20.6163 41.8363 20.6163 41.7648 20.5397C41.4788 20.463 41.1927 20.3097 40.9066 20.0798C40.6921 19.8499 40.406 19.62 40.1915 19.2368C39.9769 18.9302 39.7624 18.4704 39.4763 17.9339L33.3974 5.44141H33.2543L27.1039 18.0105C26.8893 18.4704 26.6748 18.8536 26.5318 19.1601ZM32.6822 8.12384L36.115 15.2514H29.1779L32.6822 8.12384Z" fill="#F9F6F2"/>
<path d="M66.6532 18.5471C66.3672 19.0069 66.0811 19.3135 65.7235 19.6201C65.3659 19.85 64.9368 20.0799 64.5077 20.1565C64.0786 20.2332 63.578 20.3098 63.0059 20.3098H55.2106L66.8678 5.74805H54.4954C54.4954 5.74805 54.3524 8.20056 54.4954 7.89399C54.6384 7.51079 54.853 7.12758 55.1391 6.89766C55.4251 6.66774 55.7827 6.43782 56.2833 6.36117C56.7124 6.28453 57.3561 6.20789 58.0712 6.20789H64.2932L52.5645 20.6164V20.693H66.5817C66.5817 20.693 66.8678 18.2405 66.6532 18.5471Z" fill="#F9F6F2"/>
<path d="M90.3262 5.97695C90.4693 6.0536 90.6123 6.13024 90.7553 6.28352C90.8984 6.4368 90.9699 6.59008 91.0414 6.74336C91.1129 6.89665 91.1129 7.12657 91.1844 7.35649C91.1844 7.58641 91.1844 7.89298 91.1844 8.27618V12.9513H82.3879V8.27618C82.3879 7.50977 82.4594 6.97329 82.5309 6.66672C82.6024 6.51344 82.7455 6.36016 82.8885 6.20688C83.0315 6.13024 83.1746 5.97695 83.3891 5.90031C83.5321 5.82367 83.6752 5.82367 83.8182 5.74703H78.9551C79.1696 5.82367 79.3842 5.90031 79.5272 5.97695C79.7418 6.0536 79.8848 6.13024 79.9563 6.28352C80.0993 6.4368 80.1709 6.51344 80.2424 6.74336C80.3139 6.89665 80.3139 7.12657 80.3854 7.35649C80.3854 7.58641 80.3854 7.89298 80.3854 8.27618V18.2395C80.3854 19.2358 80.2424 19.849 80.0278 20.1555C79.8133 20.4621 79.4557 20.6154 79.0266 20.692H83.8897C83.6752 20.6154 83.4606 20.5387 83.3176 20.4621C83.1746 20.3855 83.0315 20.3088 82.8885 20.1555C82.7455 20.0789 82.6739 19.9256 82.6024 19.6957C82.5309 19.5424 82.5309 19.3125 82.4594 19.0826C82.4594 18.8526 82.4594 18.5461 82.4594 18.1629V13.1812H91.256V18.1629C91.256 18.6994 91.1844 19.1592 91.1129 19.4658C91.0414 19.849 90.8984 20.0789 90.6838 20.3088C90.4693 20.4621 90.3262 20.6154 90.0402 20.6154H94.6888C94.4742 20.5387 94.2597 20.4621 94.1166 20.3855C93.9021 20.3088 93.759 20.2322 93.6875 20.0789C93.5445 20.0022 93.473 19.7723 93.4015 19.619C93.3299 19.4658 93.3299 19.2358 93.2584 19.0059C93.2584 18.776 93.2584 18.4694 93.2584 18.0862V8.1229C93.2584 7.27985 93.3299 6.82001 93.4015 6.51344C93.473 6.36016 93.616 6.20688 93.759 6.0536C93.9021 5.97695 94.0451 5.82367 94.2597 5.74703C94.4027 5.67039 94.5457 5.67039 94.6888 5.59375H89.8256C89.9687 5.82367 90.1832 5.90031 90.3262 5.97695Z" fill="#F9F6F2"/>
<path d="M106.774 19.1601C106.631 19.4667 106.416 19.7733 106.202 20.0032C105.987 20.2331 105.701 20.3864 105.415 20.5397C105.201 20.6163 104.986 20.693 104.771 20.693H108.919C108.848 20.693 108.776 20.693 108.705 20.6163C108.419 20.5397 108.204 20.463 107.99 20.3864C107.775 20.3097 107.632 20.1565 107.561 20.0032C107.489 19.8499 107.489 19.6966 107.489 19.5433C107.489 19.2368 107.632 18.7003 107.918 18.0872L109.206 15.4814H116.429L117.573 17.8572C117.931 18.6236 118.145 19.1601 118.145 19.5433C118.145 19.7733 118.074 20.1565 117.644 20.3864C117.501 20.463 117.215 20.6163 116.929 20.6163H122.222C122.15 20.6163 122.079 20.6163 122.007 20.5397C121.721 20.463 121.435 20.3097 121.149 20.0798C120.934 19.8499 120.648 19.62 120.434 19.2368C120.219 18.9302 120.005 18.4704 119.718 17.9339L113.711 5.44141H113.568L107.418 18.0105C107.132 18.4704 106.989 18.8536 106.774 19.1601ZM112.924 8.12384L116.357 15.2514H109.42L112.924 8.12384Z" fill="#F9F6F2"/>
<path d="M148.325 5.74805H145.25C145.465 5.82469 145.679 5.90133 145.894 6.05461C146.108 6.20789 146.252 6.51446 146.323 6.82102C146.395 7.12758 146.466 7.58743 146.466 8.12392V17.704L135.238 5.74805H131.662C131.734 5.74805 131.734 5.74805 131.734 5.74805C132.02 5.82469 132.234 5.90133 132.449 5.97797C132.663 6.05461 132.806 6.13125 133.021 6.28453C133.164 6.36117 133.379 6.51446 133.522 6.66774C133.736 6.82102 133.951 7.05094 134.165 7.35751L134.237 7.43415V18.3172C134.237 18.8537 134.165 19.2369 134.094 19.6201C134.022 20.0033 133.879 20.2332 133.665 20.3865C133.45 20.5398 133.235 20.693 133.021 20.7697H136.025C135.81 20.693 135.596 20.6164 135.452 20.4631C135.238 20.3098 135.095 20.0033 135.023 19.6967C134.952 19.3901 134.88 18.9303 134.88 18.3938V8.12392L146.967 20.9996H147.038V8.20056C147.038 7.66407 147.11 7.28087 147.181 6.89766C147.253 6.5911 147.396 6.28453 147.61 6.13125C147.825 5.97797 148.039 5.82469 148.325 5.74805Z" fill="#F9F6F2"/>
<path d="M172.713 19.3901C172.499 19.6201 172.284 19.7733 172.069 19.85C171.855 20.0033 171.569 20.0799 171.354 20.1565C171.068 20.2332 170.782 20.3098 170.425 20.3098C170.067 20.3098 169.638 20.3098 169.137 20.3098H166.134C165.704 20.3098 165.418 20.3098 165.204 20.2332C164.918 20.1566 164.775 20.0799 164.632 19.9266C164.489 19.7733 164.417 19.5434 164.417 19.2369C164.417 19.0069 164.417 18.7004 164.417 18.3172V12.9523H168.565C168.851 12.9523 169.066 12.9523 169.28 12.9523V12.5691C169.066 12.5691 168.851 12.6457 168.565 12.6457H164.417V6.13125H169.566C170.139 6.13125 170.711 6.13125 171.068 6.20789C171.497 6.28453 171.855 6.36117 172.141 6.5911C172.427 6.82102 172.642 7.12758 172.785 7.43415C172.856 7.58743 172.928 7.81735 172.999 8.04728V5.74805H161.056C161.413 5.82469 161.771 5.97797 161.986 6.20789C162.272 6.51446 162.415 7.12758 162.415 8.20056V18.2405C162.415 19.0069 162.343 19.5434 162.272 19.85C162.2 20.0033 162.057 20.1566 161.914 20.3098C161.771 20.4631 161.557 20.5398 161.413 20.6164C161.27 20.693 161.127 20.693 160.984 20.7697H173.142L174 17.8573C173.285 18.777 173.214 19.0069 172.713 19.3901Z" fill="#F9F6F2"/>
<path d="M36.76 0H39.3346L36.5454 3.21892H34.543L36.76 0Z" fill="#F9F6F2"/>
</svg>
