<svg width="512" height="476" viewBox="0 0 512 476" fill="none" xmlns="http://www.w3.org/2000/svg">
<path d="M493.714 156.525C493.714 84.1137 443.554 18.2852 365.043 18.2852C303.978 18.2852 269.085 62.1709 255.999 103.862C242.914 62.1709 208.02 18.2852 146.956 18.2852C70.6259 18.2852 18.2852 84.1137 18.2852 154.331V156.525C18.2852 171.885 18.2852 329.874 253.819 457.142C493.714 329.874 493.714 171.885 493.714 156.525Z" fill="black"/>
<path d="M18.2852 154.331C18.2852 84.1137 70.6259 18.2852 146.956 18.2852C208.02 18.2852 242.914 62.1709 255.999 103.862C269.085 62.1709 303.978 18.2852 365.043 18.2852C443.554 18.2852 493.714 84.1137 493.714 156.525C493.714 171.885 493.714 329.874 253.819 457.142C18.2852 329.874 18.2852 171.885 18.2852 156.525M18.2852 154.331C18.2852 154.331 18.2852 154.331 18.2852 156.525M18.2852 154.331V156.525" stroke="black" stroke-width="18.2857" stroke-miterlimit="10" stroke-linejoin="round"/>
</svg>
