<svg width="26" height="26" viewBox="0 0 26 26" fill="none" xmlns="http://www.w3.org/2000/svg">
<path fill-rule="evenodd" clip-rule="evenodd" d="M4 11.9167C4 7.54441 7.54441 4 11.9167 4C16.2889 4 19.8333 7.54441 19.8333 11.9167C19.8333 16.2889 16.2889 19.8333 11.9167 19.8333C7.54441 19.8333 4 16.2889 4 11.9167ZM11.9167 2.5C6.71599 2.5 2.5 6.71599 2.5 11.9167C2.5 17.1173 6.71599 21.3333 11.9167 21.3333C14.247 21.3333 16.3797 20.4868 18.0239 19.0846L21.1363 22.197C21.4292 22.4899 21.9041 22.4899 22.197 22.197C22.4899 21.9041 22.4899 21.4292 22.197 21.1363L19.0846 18.0239C20.4868 16.3797 21.3333 14.247 21.3333 11.9167C21.3333 6.71599 17.1173 2.5 11.9167 2.5Z" fill="#151E28"/>
</svg>
