<svg width="26" height="26" viewBox="0 0 26 26" fill="none" xmlns="http://www.w3.org/2000/svg">
<path fill-rule="evenodd" clip-rule="evenodd" d="M1.08203 1.35352C0.6333 1.35352 0.269531 1.71728 0.269531 2.16602C0.269531 2.61475 0.6333 2.97852 1.08203 2.97852H1.93166C3.00174 2.97852 3.94668 3.67643 4.26137 4.69918L7.18288 14.1941C7.70737 15.8987 9.28228 17.0618 11.0657 17.0618H18.1639C19.958 17.0618 21.5396 15.8851 22.0551 14.1667L23.7735 8.43874C24.3469 6.52727 22.9156 4.60352 20.92 4.60352H5.95703C5.94874 4.60352 5.94047 4.60364 5.93224 4.60389L5.81452 4.22129C5.29003 2.5167 3.71512 1.35352 1.93166 1.35352H1.08203ZM8.73602 13.7162L6.43212 6.22852H20.92C21.8271 6.22852 22.4777 7.10295 22.217 7.9718L20.4986 13.6998C20.1893 14.7308 19.2404 15.4368 18.1639 15.4368H11.0657C9.99566 15.4368 9.05071 14.7389 8.73602 13.7162ZM10.832 20.3118C10.0841 20.3118 9.47787 20.9181 9.47787 21.666C9.47787 22.4139 10.0841 23.0202 10.832 23.0202C11.5799 23.0202 12.1862 22.4139 12.1862 21.666C12.1862 20.9181 11.5799 20.3118 10.832 20.3118ZM7.85286 21.666C7.85286 20.0207 9.18668 18.6868 10.832 18.6868C12.4774 18.6868 13.8112 20.0207 13.8112 21.666C13.8112 23.3114 12.4774 24.6452 10.832 24.6452C9.18668 24.6452 7.85286 23.3114 7.85286 21.666ZM19.4987 20.3118C18.7508 20.3118 18.1445 20.9181 18.1445 21.666C18.1445 22.4139 18.7508 23.0202 19.4987 23.0202C20.2466 23.0202 20.8529 22.4139 20.8529 21.666C20.8529 20.9181 20.2466 20.3118 19.4987 20.3118ZM16.5195 21.666C16.5195 20.0207 17.8533 18.6868 19.4987 18.6868C21.144 18.6868 22.4779 20.0207 22.4779 21.666C22.4779 23.3114 21.144 24.6452 19.4987 24.6452C17.8533 24.6452 16.5195 23.3114 16.5195 21.666Z" fill="#151E28"/>
</svg>
