<svg width="37" height="37" viewBox="0 0 37 37" fill="none" xmlns="http://www.w3.org/2000/svg">
<rect width="36.7883" height="36.7883" rx="10.1901" fill="#ECECEC"/>
<rect x="4.7832" y="4.78223" width="27.1495" height="27.1495" rx="10.1901" fill="black"/>
<g filter="url(#filter0_i_1_557)">
<path d="M11.9393 17.4986C11.9393 17.4986 18.4475 14.6123 20.7047 13.596C21.57 13.1895 24.5043 11.8885 24.5043 11.8885C24.5043 11.8885 25.8586 11.3194 25.7458 12.7016C25.7081 13.2708 25.4072 15.2627 25.1062 17.4173C24.6548 20.4663 24.1657 23.7998 24.1657 23.7998C24.1657 23.7998 24.0905 24.7349 23.4509 24.8975C22.8114 25.0601 21.758 24.3284 21.57 24.1657C21.4194 24.0438 18.7485 22.2144 17.7704 21.32C17.507 21.0761 17.2061 20.5883 17.8079 20.0191C19.1623 18.6776 20.7799 17.0108 21.758 15.9539C22.2095 15.466 22.6609 14.3277 20.7799 15.7099C18.1089 17.7019 15.4755 19.572 15.4755 19.572C15.4755 19.572 14.8736 19.9785 13.745 19.6126C12.6164 19.2468 11.2997 18.7589 11.2997 18.7589C11.2997 18.7589 10.3969 18.1491 11.9393 17.4986Z" fill="white"/>
</g>
<defs>
<filter id="filter0_i_1_557" x="9.93359" y="9.93262" width="16.5547" height="16.7245" filterUnits="userSpaceOnUse" color-interpolation-filters="sRGB">
<feFlood flood-opacity="0" result="BackgroundImageFix"/>
<feBlend mode="normal" in="SourceGraphic" in2="BackgroundImageFix" result="shape"/>
<feColorMatrix in="SourceAlpha" type="matrix" values="0 0 0 0 0 0 0 0 0 0 0 0 0 0 0 0 0 0 127 0" result="hardAlpha"/>
<feOffset dy="0.169835"/>
<feGaussianBlur stdDeviation="0.424587"/>
<feComposite in2="hardAlpha" operator="arithmetic" k2="-1" k3="1"/>
<feColorMatrix type="matrix" values="0 0 0 0 0 0 0 0 0 0 0 0 0 0 0 0 0 0 0.1 0"/>
<feBlend mode="normal" in2="shape" result="effect1_innerShadow_1_557"/>
</filter>
</defs>
</svg>
