<svg width="26" height="26" viewBox="0 0 26 26" fill="none" xmlns="http://www.w3.org/2000/svg">
<path fill-rule="evenodd" clip-rule="evenodd" d="M9.48047 7.58333C9.48047 5.63883 11.0568 4.0625 13.0013 4.0625C14.9458 4.0625 16.5221 5.63883 16.5221 7.58333C16.5221 9.52784 14.9458 11.1042 13.0013 11.1042C11.0568 11.1042 9.48047 9.52784 9.48047 7.58333ZM13.0013 2.4375C10.1593 2.4375 7.85547 4.74137 7.85547 7.58333C7.85547 10.4253 10.1593 12.7292 13.0013 12.7292C15.8433 12.7292 18.1471 10.4253 18.1471 7.58333C18.1471 4.74137 15.8433 2.4375 13.0013 2.4375ZM6.23047 20.5833C6.23047 18.6388 7.8068 17.0625 9.7513 17.0625H16.2513C18.1958 17.0625 19.7721 18.6388 19.7721 20.5833C19.7721 21.3312 19.1659 21.9375 18.418 21.9375H7.58464C6.83675 21.9375 6.23047 21.3312 6.23047 20.5833ZM18.418 23.5625C20.0633 23.5625 21.3971 22.2287 21.3971 20.5833C21.3971 17.7414 19.0933 15.4375 16.2513 15.4375H9.7513C6.90934 15.4375 4.60547 17.7414 4.60547 20.5833C4.60547 22.2287 5.93929 23.5625 7.58464 23.5625H18.418Z" fill="#151E28"/>
</svg>
