<svg width="37" height="37" viewBox="0 0 37 37" fill="none" xmlns="http://www.w3.org/2000/svg">
<rect x="0.210938" width="36.7883" height="36.7883" rx="10.1901" fill="#ECECEC"/>
<rect x="4.99414" y="4.78223" width="27.1495" height="27.1495" rx="10.1901" fill="black"/>
<g clip-path="url(#clip0_1_559)" filter="url(#filter0_i_1_559)">
<path d="M14.945 24.319C14.945 24.0728 14.945 23.8266 14.945 23.5803C14.9468 23.5703 14.9464 23.5599 14.944 23.55C14.9415 23.5401 14.9371 23.5308 14.9309 23.5226C14.9246 23.5145 14.9168 23.5077 14.9078 23.5027C14.8989 23.4976 14.8889 23.4945 14.8787 23.4934C14.2627 23.32 13.6942 23.0112 13.2155 22.5898C12.8667 22.2754 12.5763 21.9028 12.3575 21.4889C12.049 20.8911 11.8438 20.2464 11.7502 19.5814C11.6343 18.7473 11.594 17.9045 11.6299 17.0633C11.6378 16.6711 11.658 16.2833 11.703 15.8911C11.7747 15.1458 11.9645 14.4164 12.2652 13.7296C12.6367 12.8851 13.3105 12.2068 14.1567 11.8254C14.7332 11.564 15.3397 11.3732 15.9627 11.2571C16.5737 11.1424 17.1924 11.0721 17.8137 11.0465C18.3738 11.0269 18.9345 11.0351 19.4938 11.071C20.2942 11.1045 21.0874 11.2359 21.8553 11.4621C22.4247 11.6247 22.9663 11.8707 23.4623 12.1919C23.9455 12.5206 24.3364 12.9658 24.5981 13.4855C24.9057 14.0926 25.1148 14.7438 25.2177 15.4154C25.2845 15.8141 25.3285 16.2162 25.3493 16.6198C25.3785 17.1201 25.3751 17.6226 25.356 18.1207C25.3369 18.6187 25.2942 19.1023 25.2323 19.5903C25.1541 20.3228 24.9269 21.032 24.5643 21.675C24.0924 22.4885 23.3364 23.1028 22.439 23.4021C21.8253 23.615 21.1916 23.7665 20.5475 23.8544C20.0763 23.919 19.604 23.9658 19.1294 23.9848C18.7662 24.0015 18.403 23.997 18.0398 23.9915C17.834 23.9915 17.6293 23.9714 17.4246 23.9536C17.4045 23.9498 17.3838 23.9521 17.365 23.96C17.3461 23.9679 17.3301 23.9812 17.3189 23.9982C16.9051 24.4906 16.4755 24.9698 16.0426 25.4466C15.9637 25.5336 15.8724 25.6087 15.7716 25.6695C15.7054 25.7125 15.6299 25.7395 15.5512 25.7483C15.4725 25.7571 15.3929 25.7474 15.3187 25.7201C15.2445 25.6928 15.1778 25.6486 15.124 25.591C15.0702 25.5334 15.0309 25.4641 15.0091 25.3887C14.9663 25.2547 14.945 25.1148 14.9461 24.9742C14.945 24.7536 14.945 24.5363 14.945 24.319ZM15.4454 25.2539L15.4983 25.2048L16.4373 24.172C16.7986 23.7746 17.1596 23.3768 17.5202 22.9786C17.5379 22.9544 17.5619 22.9352 17.5895 22.923C17.6172 22.9109 17.6476 22.9062 17.6777 22.9096C17.8002 22.9218 17.9228 22.9263 18.0465 22.9274C18.4738 22.9274 18.9012 22.9274 19.3285 22.8973C19.7164 22.8672 20.1033 22.8204 20.4879 22.7603C20.902 22.6888 21.3119 22.5955 21.7159 22.4806C22.6155 22.241 23.3116 21.7285 23.749 20.8984C24.0073 20.3881 24.1693 19.8352 24.227 19.2672C24.2953 18.7318 24.3362 18.1933 24.3495 17.6538C24.3695 16.9761 24.3228 16.298 24.2101 15.6293C24.132 15.1448 23.9914 14.6722 23.7918 14.2231C23.5376 13.666 23.1778 13.2048 22.6234 12.9084C21.7732 12.4538 20.8534 12.251 19.9054 12.1474C19.6366 12.1184 19.3678 12.1028 19.0979 12.0928C18.5453 12.0645 17.9915 12.0675 17.4393 12.1017C17.0421 12.1309 16.647 12.1837 16.2562 12.2599C15.6815 12.3637 15.1256 12.5514 14.6065 12.817C14.3056 12.9677 14.0326 13.1677 13.7991 13.4087C13.4207 13.8278 13.1431 14.3264 12.9872 14.8672C12.8023 15.4969 12.7013 16.148 12.6869 16.8037C12.6508 17.4594 12.659 18.1168 12.7117 18.7714C12.7444 19.1609 12.8103 19.5471 12.9085 19.9257C13.0546 20.5157 13.338 21.0637 13.7361 21.5257C14.1659 21.9971 14.7214 22.3385 15.3386 22.5107C15.4162 22.5341 15.4511 22.5608 15.4511 22.6477C15.4443 22.9686 15.4511 23.2895 15.4511 23.6104L15.4454 25.2539Z" fill="white"/>
<path d="M14.6584 15.3021C14.6505 15.0581 14.7844 14.8809 14.9463 14.7216C15.1599 14.5189 15.3952 14.3399 15.648 14.1879C15.7633 14.1175 15.9004 14.0906 16.0341 14.1123C16.1677 14.134 16.289 14.2028 16.3756 14.306C16.6815 14.6246 16.9553 14.972 17.1931 15.3433C17.3109 15.5104 17.3998 15.6956 17.4563 15.8915C17.4788 15.968 17.4803 16.049 17.4605 16.1262C17.4407 16.2035 17.4004 16.274 17.3438 16.3305C17.2141 16.4567 17.0758 16.574 16.93 16.6815C16.8565 16.7395 16.8019 16.8177 16.7729 16.9063C16.7439 16.9948 16.7418 17.0899 16.7669 17.1796C16.857 17.6008 17.0611 17.9899 17.3573 18.3049C17.7173 18.7403 18.1811 19.08 18.7068 19.2932C18.8359 19.359 18.9839 19.3791 19.1262 19.3501C19.2041 19.329 19.2734 19.2842 19.3241 19.2219C19.4028 19.1228 19.4883 19.0269 19.5592 18.9211C19.651 18.7891 19.7913 18.6978 19.9502 18.6668C20.109 18.6358 20.2737 18.6675 20.4093 18.7551C20.7905 18.9742 21.1504 19.2278 21.4844 19.5127C21.5631 19.5796 21.6452 19.6442 21.7239 19.7122C21.817 19.7826 21.8843 19.8813 21.9154 19.9932C21.9465 20.1051 21.9396 20.224 21.8959 20.3317C21.8265 20.5128 21.7252 20.6803 21.5968 20.8264C21.4373 21.0461 21.2341 21.2311 20.9997 21.3701C20.8876 21.4353 20.7617 21.4736 20.6321 21.4819C20.5024 21.4903 20.3726 21.4684 20.253 21.418C19.3432 21.0551 18.493 20.5598 17.7307 19.9484C16.985 19.3402 16.3333 18.6269 15.7964 17.8314C15.3447 17.1728 14.9853 16.4565 14.7281 15.7021C14.7007 15.6109 14.6782 15.5183 14.6607 15.4247C14.6557 15.384 14.6549 15.3429 14.6584 15.3021V15.3021Z" fill="white"/>
<path d="M18.5408 14.1161C19.302 14.13 20.0342 14.4082 20.6096 14.9022C21.185 15.3962 21.5672 16.0746 21.6895 16.8192C21.7387 17.0899 21.7651 17.3642 21.7682 17.6392C21.7682 17.7039 21.7513 17.7506 21.6816 17.7573C21.6119 17.764 21.5939 17.705 21.5939 17.6459C21.6044 17.0896 21.4891 16.5379 21.2565 16.0314C21.0607 15.6152 20.7706 15.2494 20.4088 14.9624C20.047 14.6754 19.6233 14.475 19.1705 14.3768C18.9312 14.3219 18.6864 14.2935 18.4407 14.2921C18.4168 14.2925 18.3929 14.2895 18.3699 14.2832C18.3502 14.2777 18.3335 14.2649 18.3232 14.2474C18.3129 14.23 18.3099 14.2093 18.3148 14.1896C18.3149 14.1803 18.3169 14.1711 18.3207 14.1626C18.3244 14.154 18.3299 14.1463 18.3367 14.1399C18.3435 14.1335 18.3515 14.1284 18.3603 14.1251C18.3691 14.1218 18.3785 14.1202 18.3878 14.1205C18.4385 14.1139 18.4902 14.1161 18.5408 14.1161Z" fill="white"/>
<path d="M20.712 17.1377C20.7082 16.8282 20.6313 16.5238 20.4874 16.2491C20.3434 15.9743 20.1365 15.7368 19.8832 15.5556C19.5876 15.3498 19.2439 15.2221 18.8846 15.1845C18.8239 15.1767 18.7632 15.1734 18.7013 15.1667C18.6395 15.16 18.6024 15.1344 18.608 15.072C18.6136 15.0096 18.653 14.9873 18.7204 14.9918C19.7168 15.0519 20.5647 15.6101 20.8256 16.6497C20.8733 16.8502 20.8971 17.0555 20.8964 17.2614C20.8964 17.2804 20.8964 17.2993 20.8964 17.3171C20.8964 17.3728 20.8604 17.4096 20.8053 17.4085C20.7931 17.4081 20.7811 17.4052 20.77 17.4001C20.759 17.3949 20.7491 17.3876 20.741 17.3785C20.7329 17.3694 20.7267 17.3588 20.7229 17.3473C20.7191 17.3358 20.7177 17.3236 20.7187 17.3116C20.7097 17.2592 20.712 17.2057 20.712 17.1377Z" fill="white"/>
<path d="M18.9659 15.8965C19.5125 15.9333 19.8937 16.1985 19.9983 16.7745C20.0109 16.8483 20.02 16.9227 20.0252 16.9974C20.0252 17.0575 20.0118 17.1088 19.9454 17.1088C19.8791 17.1088 19.8566 17.0642 19.8543 16.9974C19.8537 16.7766 19.785 16.5612 19.6575 16.3801C19.5235 16.2161 19.3311 16.1092 19.12 16.0815C19.0728 16.0727 19.0251 16.0668 18.9772 16.0637C18.8985 16.0637 18.8546 16.0247 18.8647 15.9645C18.8748 15.9043 18.9221 15.8932 18.9659 15.8965Z" fill="white"/>
</g>
<defs>
<filter id="filter0_i_1_559" x="11.248" y="11.0366" width="14.7148" height="15.2153" filterUnits="userSpaceOnUse" color-interpolation-filters="sRGB">
<feFlood flood-opacity="0" result="BackgroundImageFix"/>
<feBlend mode="normal" in="SourceGraphic" in2="BackgroundImageFix" result="shape"/>
<feColorMatrix in="SourceAlpha" type="matrix" values="0 0 0 0 0 0 0 0 0 0 0 0 0 0 0 0 0 0 127 0" result="hardAlpha"/>
<feOffset dy="0.5"/>
<feGaussianBlur stdDeviation="1.25"/>
<feComposite in2="hardAlpha" operator="arithmetic" k2="-1" k3="1"/>
<feColorMatrix type="matrix" values="0 0 0 0 0 0 0 0 0 0 0 0 0 0 0 0 0 0 0.1 0"/>
<feBlend mode="normal" in2="shape" result="effect1_innerShadow_1_559"/>
</filter>
<clipPath id="clip0_1_559">
<rect width="14.7153" height="14.7153" fill="white" transform="translate(11.248 11.0366)"/>
</clipPath>
</defs>
</svg>
