<svg width="512" height="92" viewBox="0 0 512 92" fill="none" xmlns="http://www.w3.org/2000/svg">
<g clip-path="url(#clip0_0_6979)">
<path d="M19.9932 86.9799V91.4298H18.0234V78.3768H20.0095V79.4892C20.4848 79.0465 21.0456 78.6847 21.6647 78.4211C22.2933 78.1839 22.9688 78.0628 23.6508 78.0652C24.4175 78.0425 25.1811 78.1626 25.8934 78.4179C26.6057 78.6732 27.251 79.0583 27.7887 79.5486C28.3318 80.0331 28.7587 80.6119 29.0433 81.2496C29.3278 81.8872 29.4641 82.5702 29.4437 83.2567C29.4491 83.932 29.3086 84.602 29.03 85.2295C28.764 85.8426 28.3646 86.4021 27.8548 86.8754C27.3538 87.3798 26.7312 87.7755 26.0343 88.0323C25.3255 88.2912 24.565 88.4174 23.7998 88.4031C23.0853 88.4083 22.3766 88.2873 21.7142 88.0472C21.0563 87.7856 20.4607 87.4131 19.9598 86.9499M19.9598 83.1527C19.9468 83.6123 20.0368 84.0697 20.2244 84.4976C20.412 84.9256 20.6934 85.3155 21.052 85.6444C21.3787 85.9761 21.7815 86.2406 22.2329 86.4198C22.6843 86.599 23.1735 86.6887 23.6671 86.6827C24.1649 86.6807 24.6573 86.591 25.1163 86.4184C25.5754 86.2459 25.992 85.9941 26.3424 85.6773C26.6928 85.3605 26.9702 84.985 27.1586 84.5721C27.3471 84.1592 27.443 83.7172 27.4408 83.2711C27.4501 82.8083 27.3569 82.3485 27.1665 81.9182C26.9762 81.4879 26.6925 81.0957 26.332 80.7643C25.9863 80.4401 25.5698 80.1833 25.1085 80.0097C24.6471 79.8362 24.1508 79.7497 23.6505 79.7557C23.1646 79.7568 22.6841 79.8483 22.2397 80.0245C21.7952 80.2006 21.3964 80.4576 21.0686 80.7791C20.7132 81.0862 20.4315 81.4551 20.2408 81.8632C20.0502 82.2713 19.9545 82.71 19.9598 83.1524" fill="#3792D0"/>
<path d="M64.7497 88.1851V86.9095C64.2829 87.3609 63.7201 87.724 63.0944 87.9776C62.4704 88.2292 61.7926 88.3557 61.1084 88.3483C60.3448 88.3664 59.5852 88.2441 58.8764 87.989C58.1676 87.7339 57.5246 87.3515 56.987 86.8652C56.445 86.3769 56.0189 85.7953 55.7344 85.1555C55.45 84.5156 55.313 83.8308 55.3318 83.1422C55.3252 82.4668 55.4657 81.7967 55.7455 81.1694C56.0039 80.5606 56.3982 80.0054 56.9041 79.5377C57.4178 79.0461 58.037 78.6526 58.7246 78.3808C59.4392 78.1215 60.2052 77.9949 60.976 78.0088C61.6905 78.0037 62.3991 78.1247 63.0615 78.3648C63.6882 78.6233 64.251 78.9913 64.7167 79.4474V78.2608H66.7194V88.1248L64.7497 88.1851ZM57.3523 83.1864C57.3373 83.6498 57.428 84.1111 57.6186 84.5421C57.8092 84.9731 58.0959 85.3648 58.4611 85.6932C58.8047 86.0248 59.2227 86.2875 59.6878 86.4639C60.1528 86.6403 60.6543 86.7265 61.1591 86.7166C61.6427 86.7154 62.1206 86.6237 62.5624 86.4475C63.0042 86.2712 63.4001 86.0143 63.7247 85.6932C64.0829 85.3841 64.3674 85.0131 64.5608 84.6026C64.7543 84.192 64.8527 83.7506 64.8502 83.305C64.8606 82.8465 64.7678 82.3909 64.5772 81.9652C64.3867 81.5396 64.1024 81.1528 63.7413 80.8279C63.4107 80.4966 63.0048 80.2325 62.5509 80.0534C62.097 79.8744 61.6056 79.7844 61.1096 79.7896C60.6134 79.7896 60.1222 79.8777 59.6642 80.0487C59.2061 80.2198 58.7905 80.4705 58.4412 80.7863C58.0919 81.1021 57.8158 81.4768 57.6289 81.8887C57.4421 82.3007 57.3482 82.7417 57.3525 83.1864" fill="#3792D0"/>
<path d="M92.5215 78.3203H94.6399L97.619 85.6627L100.83 78.3203H102.965L97.04 91.3733H94.9545L96.4773 87.9022L92.5215 78.3203Z" fill="#3792D0"/>
<path d="M135.472 83.1956C135.542 82.2947 135.342 81.3935 134.893 80.585C134.705 80.3129 134.437 80.0919 134.119 79.9456C133.802 79.7993 133.445 79.7332 133.089 79.7545C132.723 79.7335 132.358 79.7992 132.029 79.945C131.701 80.0907 131.421 80.3115 131.219 80.585C130.747 81.3606 130.534 82.2415 130.606 83.1224V88.1804H128.719V78.3164H130.49V79.4877C130.815 79.0768 131.239 78.7371 131.731 78.494C132.242 78.2584 132.813 78.146 133.386 78.1678C134.083 78.145 134.774 78.2883 135.389 78.5832C135.959 78.8863 136.415 79.3358 136.697 79.8736C136.987 79.3316 137.455 78.8816 138.037 78.5832C138.676 78.2886 139.388 78.1456 140.106 78.1678C140.661 78.1446 141.214 78.2294 141.729 78.4164C142.243 78.6033 142.706 78.8879 143.086 79.2507C143.879 80.0699 144.283 81.1346 144.211 82.2172V88.2542H142.225V82.454C142.273 81.756 142.051 81.0645 141.596 80.4961C141.403 80.2686 141.152 80.0855 140.864 79.9617C140.576 79.8379 140.26 79.777 139.941 79.784C139.585 79.7561 139.228 79.8111 138.903 79.9436C138.578 80.0762 138.297 80.2818 138.087 80.5404C137.639 81.3115 137.444 82.1808 137.524 83.0472V88.209H135.604L135.472 83.1956Z" fill="#3792D0"/>
<path d="M172.531 83.9369C172.664 84.716 173.105 85.4266 173.773 85.9394C174.344 86.3685 175.046 86.6322 175.788 86.6958C176.53 86.7593 177.276 86.6197 177.927 86.2953C178.468 86.0035 178.913 85.589 179.218 85.0938H181.436C181.012 86.098 180.277 86.9729 179.317 87.6155C178.387 88.1972 177.274 88.4985 176.14 88.4757C175.374 88.4812 174.614 88.3501 173.905 88.0901C173.208 87.8261 172.582 87.4316 172.069 86.9331C171.551 86.445 171.146 85.8701 170.877 85.2415C170.583 84.6222 170.431 83.9564 170.43 83.2836C170.424 82.6144 170.559 81.9502 170.827 81.3256C171.101 80.7162 171.5 80.1581 172.002 79.6797C172.518 79.1685 173.142 78.7549 173.839 78.4633C174.551 78.1927 175.317 78.0563 176.09 78.0628C177.031 78.0532 177.959 78.2577 178.788 78.6572C179.618 79.0657 180.327 79.6456 180.857 80.3488C181.168 80.8119 181.408 81.311 181.569 81.8322C181.722 82.4404 181.795 83.0628 181.784 83.6863V83.9378L172.531 83.9369ZM179.615 82.3349C179.422 81.6023 178.976 80.9431 178.34 80.4512C177.706 80.0086 176.926 79.7683 176.122 79.7683C175.319 79.7683 174.538 80.0086 173.904 80.4512C173.251 80.9218 172.791 81.5742 172.597 82.3052L179.615 82.3349Z" fill="#3792D0"/>
<path d="M210.087 88.1787H208.117V78.3147H210.021V79.4865C210.387 79.0782 210.851 78.7488 211.378 78.5225C211.898 78.3134 212.463 78.2071 213.033 78.2109C213.644 78.1757 214.256 78.2597 214.828 78.457C215.399 78.6543 215.916 78.9603 216.343 79.3539C217.177 80.2651 217.591 81.4268 217.502 82.6023V88.2389H215.566V83.004C215.631 82.1839 215.398 81.3671 214.902 80.6752C214.661 80.414 214.353 80.2088 214.004 80.0771C213.656 79.9454 213.277 79.8911 212.9 79.9188C212.486 79.889 212.071 79.9553 211.694 80.1112C211.317 80.267 210.991 80.5073 210.748 80.8087C210.228 81.7244 209.998 82.7506 210.085 83.7752L210.087 88.1787Z" fill="#3792D0"/>
<path d="M245.125 88.185V79.923H243.553V78.321H245.125V75.1172H247.095V78.321H248.651V79.923H247.095V88.185H245.125Z" fill="#3792D0"/>
<path d="M306.597 83.9372C306.688 84.4593 306.919 84.954 307.269 85.3791C307.619 85.8042 308.078 86.1472 308.608 86.3788C309.138 86.6104 309.723 86.7238 310.312 86.7094C310.902 86.6949 311.478 86.553 311.993 86.2957C312.537 86.0078 312.984 85.5924 313.284 85.0942H315.519C315.083 86.0967 314.344 86.9701 313.384 87.6158C312.453 88.1975 311.34 88.4988 310.206 88.476C309.445 88.4827 308.691 88.3515 307.988 88.0904C307.291 87.8264 306.665 87.432 306.151 86.9335C305.634 86.4421 305.225 85.8683 304.943 85.2418C304.391 83.9834 304.391 82.5844 304.943 81.326C305.211 80.7173 305.604 80.159 306.102 79.68C306.951 78.8616 308.079 78.3176 309.309 78.1325C310.539 77.9474 311.803 78.1317 312.904 78.6566C313.585 78.9812 314.183 79.4301 314.659 79.9742C315.135 80.5183 315.479 81.1457 315.668 81.8161C315.828 82.4236 315.906 83.0461 315.9 83.6702V83.9372H306.597ZM313.698 82.3352C313.499 81.6012 313.048 80.9421 312.407 80.4516C311.792 80.0014 311.016 79.7645 310.222 79.7841C309.404 79.7742 308.608 80.0208 307.971 80.4813C307.322 80.9557 306.863 81.6065 306.664 82.3354L313.698 82.3352Z" fill="#3792D0"/>
<path d="M344.136 88.1858H342.15V78.3218H344.054V79.4936C344.417 79.0808 344.883 78.7503 345.415 78.5287C345.946 78.3072 346.529 78.2007 347.115 78.218C347.726 78.1847 348.338 78.2696 348.909 78.4668C349.48 78.664 349.997 78.9689 350.425 79.361C351.253 80.275 351.666 81.4346 351.584 82.6093V88.2459H349.631V83.011C349.701 82.1927 349.474 81.376 348.985 80.6823C348.743 80.422 348.435 80.2175 348.086 80.0859C347.738 79.9543 347.359 79.8994 346.982 79.9258C346.568 79.8946 346.153 79.9602 345.775 80.1162C345.398 80.2722 345.073 80.5133 344.831 80.8158C344.302 81.7289 344.072 82.7572 344.168 83.7823L344.136 88.1858Z" fill="#3792D0"/>
<path d="M378.663 88.9713H380.765C381.054 89.4139 381.472 89.7778 381.973 90.0244C382.484 90.2665 383.052 90.3937 383.629 90.3952C384.124 90.413 384.619 90.3408 385.083 90.1827C385.546 90.0247 385.97 89.7841 386.327 89.4756C386.668 89.1636 386.934 88.7917 387.108 88.3834C387.282 87.975 387.359 87.5388 387.336 87.1023V86.9093C386.871 87.3619 386.308 87.7253 385.681 87.9773C385.051 88.228 384.368 88.3544 383.678 88.3481C382.915 88.3661 382.155 88.2438 381.446 87.9887C380.738 87.7336 380.095 87.3511 379.557 86.8647C379.015 86.3764 378.589 85.7948 378.305 85.1549C378.02 84.515 377.883 83.8301 377.902 83.1416C377.896 82.4662 378.036 81.7961 378.316 81.169C378.574 80.5565 378.975 80.0003 379.491 79.5373C379.999 79.046 380.612 78.6524 381.295 78.3803C382.01 78.1213 382.775 77.9949 383.546 78.0089C384.26 78.0038 384.969 78.1247 385.631 78.3648C386.287 78.6167 386.878 78.9856 387.369 79.449V78.2624H389.355V86.4946C389.45 87.9559 388.917 89.3943 387.865 90.5143C387.342 91.0138 386.704 91.4053 385.995 91.6615C385.287 91.9177 384.524 92.0324 383.761 91.9977C382.619 92.0279 381.495 91.749 380.533 91.1976C379.634 90.6588 378.964 89.8647 378.63 88.9429M379.954 83.158C379.943 83.621 380.035 84.0814 380.225 84.5119C380.416 84.9424 380.7 85.3344 381.063 85.6648C381.408 85.9943 381.826 86.2555 382.291 86.4317C382.756 86.608 383.256 86.6953 383.761 86.6883C384.247 86.6872 384.727 86.5957 385.171 86.4195C385.616 86.2434 386.015 85.9864 386.343 85.6648C386.698 85.355 386.98 84.9835 387.171 84.5729C387.362 84.1624 387.457 83.7213 387.452 83.2767C387.461 82.8195 387.37 82.3652 387.182 81.94C386.995 81.5148 386.715 81.1272 386.359 80.7996C386.026 80.4705 385.62 80.2079 385.167 80.029C384.713 79.8501 384.223 79.7589 383.727 79.7613C383.23 79.7593 382.737 79.8459 382.277 80.0161C381.817 80.1863 381.399 80.4367 381.048 80.7527C380.697 81.0687 380.42 81.444 380.232 81.8569C380.044 82.2699 379.949 82.7121 379.954 83.158Z" fill="#3792D0"/>
<path d="M418.237 77.1631H416.268V75.1172H418.237V77.1631ZM416.284 78.3201H418.237V88.1701H416.284V78.3201Z" fill="#3792D0"/>
<path d="M447.168 88.1787H445.182V78.3147H447.085V79.4865C447.451 79.0782 447.915 78.7488 448.442 78.5225C448.962 78.3134 449.527 78.2071 450.097 78.2109C450.708 78.1757 451.321 78.2597 451.892 78.457C452.464 78.6543 452.981 78.9603 453.408 79.3539C454.241 80.2651 454.655 81.4268 454.566 82.6023V88.2389H452.58V83.004C452.65 82.1849 452.424 81.3674 451.934 80.6732C451.688 80.4127 451.377 80.2082 451.026 80.0767C450.675 79.9452 450.294 79.8904 449.914 79.9167C449.503 79.8851 449.089 79.9506 448.714 80.1068C448.34 80.2629 448.017 80.5042 447.779 80.8067C447.251 81.7199 447.022 82.7482 447.117 83.7732L447.168 88.1787Z" fill="#3792D0"/>
<path d="M483.001 83.9371C483.127 84.7184 483.569 85.4309 484.242 85.9394C484.81 86.3683 485.51 86.6321 486.249 86.6957C486.989 86.7593 487.732 86.6197 488.38 86.2953C488.93 86.0137 489.378 85.5967 489.671 85.0938H491.972C491.548 86.098 490.813 86.9729 489.853 87.6155C488.923 88.1972 487.81 88.4985 486.675 88.4757C485.909 88.4812 485.15 88.3501 484.441 88.0901C483.744 87.8261 483.118 87.4316 482.604 86.9331C482.088 86.4417 481.678 85.8679 481.396 85.2415C480.845 83.983 480.845 82.5841 481.396 81.3256C481.664 80.7169 482.057 80.1587 482.555 79.6797C483.08 79.1712 483.709 78.7582 484.408 78.4633C485.12 78.1927 485.886 78.0563 486.659 78.0628C487.6 78.0532 488.529 78.2577 489.357 78.6572C490.182 79.0662 490.886 79.6463 491.41 80.3488C491.736 80.8052 491.976 81.3062 492.121 81.8322C492.289 82.4384 492.367 83.0618 492.353 83.6863V83.9378L483.001 83.9371ZM490.085 82.3351C489.886 81.6048 489.44 80.9472 488.81 80.4514C488.176 80.0088 487.395 79.7685 486.592 79.7685C485.788 79.7685 485.008 80.0088 484.374 80.4514C483.715 80.9206 483.249 81.573 483.05 82.3056L490.085 82.3351Z" fill="#3792D0"/>
<path d="M376.295 0.222424H359.744V57.6705H367.192V35.0798H374.74C382.982 35.0798 389.316 33.5124 393.741 30.3777C398.166 27.243 400.372 22.793 400.361 17.0276C400.361 5.85341 392.356 0.271272 376.345 0.281178M388.213 26.5354C385.267 28.4488 380.484 29.3982 373.896 29.3982H367.175V6.00733H375.451C381.326 6.00733 385.663 6.94184 388.427 8.79623C389.843 9.79739 390.963 11.0941 391.69 12.573C392.417 14.0518 392.729 15.6679 392.599 17.2797C392.599 21.4923 391.12 24.5578 388.163 26.4762M430.253 0L404.913 57.6705H412.526L420.339 39.4407H446.025L454.003 57.7149H461.716L436.526 0H430.253ZM422.97 33.389L430.518 15.5895C431.615 12.8751 432.537 10.1068 433.282 7.29799C434.114 10.1062 435.108 12.8737 436.261 15.5895L443.709 33.389H422.97ZM503.94 0.222424L486.842 28.9538L469.877 0.222424H461.717L483.068 35.7029V57.6712H490.615V35.4217L511.999 0.252827L503.94 0.222424ZM62.7131 35.6286C61.3664 40.0977 60.3163 44.6344 59.5685 49.2149C58.716 44.5672 57.5273 39.9741 56.0098 35.4647L43.9608 0.222424H36.0655L24.5787 35.154C23.0312 39.7588 21.8585 44.4581 21.0698 49.2149C20.3213 44.6646 19.2995 40.1538 18.0088 35.7022L7.89504 0.222424H0L17.0479 57.6705H24.4134L36.9427 19.4459C38.2452 15.7244 39.2678 11.9287 40.0037 8.0846C40.2902 9.66308 40.6883 11.2237 41.1955 12.7569C41.9569 15.3526 42.652 17.5035 43.2644 19.2091L56.192 57.6705H63.5575L80.6882 0.222424H72.793L62.7131 35.6286ZM107.253 0.0297189L81.9126 57.7H89.46L97.355 39.4407H123.026L131.004 57.7149H138.717L113.526 0.0434342L107.253 0.0297189ZM99.9704 33.4188L107.518 15.6192C108.615 12.9048 109.538 10.1363 110.282 7.32748C111.308 10.6056 112.285 13.3645 113.261 15.619L120.71 33.4185L99.9704 33.4188ZM163.843 28.9689L146.878 0.222654H138.717L160.067 35.7031V57.6714H167.565V35.422L189.082 0.223338H181.021L163.843 28.9689Z" fill="#26304B"/>
<mask id="mask0_0_6979" style="mask-type:luminance" maskUnits="userSpaceOnUse" x="200" y="0" width="150" height="59">
<path d="M264.823 49.0212V43.9631C263.571 43.4472 262.554 42.5633 261.939 41.4581C261.325 40.3528 261.151 39.0925 261.445 37.8863C261.74 36.6801 262.486 35.6004 263.559 34.8262C264.633 34.0521 265.969 33.63 267.347 33.63C268.725 33.63 270.061 34.0521 271.135 34.8262C272.208 35.6004 272.954 36.6801 273.248 37.8863C273.543 39.0925 273.369 40.3528 272.755 41.4581C272.14 42.5633 271.123 43.4472 269.871 43.9631V49.021C269.899 49.3336 269.855 49.6481 269.741 49.9446C269.628 50.2412 269.446 50.5133 269.209 50.7439C268.972 50.9746 268.684 51.1586 268.364 51.2845C268.043 51.4104 267.697 51.4754 267.347 51.4754C266.997 51.4754 266.651 51.4104 266.33 51.2845C266.01 51.1586 265.722 50.9746 265.485 50.7439C265.248 50.5133 265.066 50.2412 264.952 49.9446C264.838 49.6481 264.794 49.3338 264.823 49.0212ZM284.436 29.0559V29.2784H250.324V29.0559H244.067V29.2784C244.067 38.2473 246.12 45.2831 250.225 50.3857C252.125 52.8402 254.684 54.8264 257.667 56.1614C260.649 57.4964 263.958 58.1372 267.289 58.0248C270.654 58.1685 274.006 57.5573 277.041 56.2467C280.076 54.9361 282.697 52.9675 284.668 50.5193C288.74 45.5053 290.776 38.4498 290.776 29.3527V29.0555L284.436 29.0559ZM200.918 0.191085V57.6236H208.366V33.0907H234.931V27.1574H208.366V6.13921H236.636V0.205944L200.918 0.191085ZM311.564 6.06492H321.246C326.764 6.06492 330.774 6.90052 333.279 8.57172C335.784 10.2429 337.036 12.9821 337.036 16.7891C337.162 18.3513 336.896 19.919 336.257 21.3769C335.618 22.8348 334.623 24.146 333.345 25.2141C330.896 27.0831 327.034 28.0177 321.759 28.0177H311.564L311.564 6.06492ZM304.115 0.205944V57.6392H311.564V33.758H324.937L340.446 57.6389H349.252L331.855 31.8302C340.44 29.1602 344.738 24.028 344.749 16.4337C344.749 11.0047 342.861 6.9553 339.105 4.25579C335.348 1.55627 329.539 0.206405 321.676 0.206405L304.115 0.205944ZM250.142 7.62236C246.07 12.6211 244.034 18.0055 244.034 27.1721V27.4692H250.324V27.2468C250.324 19.8304 251.781 15.6919 254.71 11.7908C256.083 9.88297 257.989 8.33103 260.24 7.28992C262.491 6.24881 265.007 5.75493 267.537 5.85758C270.039 5.74093 272.53 6.21859 274.76 7.24222C276.989 8.26586 278.877 9.79913 280.232 11.6868C283.096 15.573 284.536 19.667 284.536 27.1874V27.4098H290.792V27.1874C290.792 18.2876 288.74 12.7857 284.652 7.69688C282.75 5.23546 280.186 3.24368 277.198 1.90586C274.209 0.568029 270.892 -0.0726214 267.554 0.0431882C264.19 -0.0976501 260.84 0.516465 257.808 1.82982C254.776 3.14318 252.158 5.11421 250.192 7.56406" fill="white"/>
</mask>
<g mask="url(#mask0_0_6979)">
<path d="M349.202 0.101562H200.918V58.0391H349.202V0.101562Z" fill="url(#paint0_linear_0_6979)"/>
</g>
</g>
<defs>
<linearGradient id="paint0_linear_0_6979" x1="-605.597" y1="272.466" x2="-603.817" y2="272.466" gradientUnits="userSpaceOnUse">
<stop stop-color="#4EC8EC"/>
<stop offset="0.01" stop-color="#4EC8EC"/>
<stop offset="1" stop-color="#4684C5"/>
</linearGradient>
<clipPath id="clip0_0_6979">
<rect width="512" height="92" fill="white"/>
</clipPath>
</defs>
</svg>
