<svg width="37" height="37" viewBox="0 0 37 37" fill="none" xmlns="http://www.w3.org/2000/svg">
<rect x="0.0800781" width="36.7883" height="36.7883" rx="10.1901" fill="#ECECEC"/>
<rect x="4.86328" y="4.78223" width="27.1495" height="27.1495" rx="10.1901" fill="black"/>
<g clip-path="url(#clip0_1_555)" filter="url(#filter0_i_1_555)">
<path d="M10.0117 26.4879L11.1984 22.0754C10.2414 20.3565 9.93731 18.3507 10.342 16.4261C10.7467 14.5014 11.8331 12.7871 13.4017 11.5975C14.9704 10.408 16.9161 9.82312 18.8818 9.95019C20.8476 10.0773 22.7015 10.9078 24.1034 12.2894C25.5052 13.6709 26.361 15.5108 26.5138 17.4715C26.6665 19.4322 26.1058 21.3821 24.9347 22.9634C23.7636 24.5447 22.0606 25.6513 20.1382 26.0802C18.2158 26.5092 16.2029 26.2316 14.4689 25.2984L10.0117 26.4879ZM14.6838 23.6473L14.9595 23.8105C16.2154 24.5537 17.6823 24.8613 19.1317 24.6852C20.581 24.5092 21.9313 23.8595 22.9721 22.8373C24.0129 21.8152 24.6858 20.478 24.8859 19.0342C25.0861 17.5903 24.8021 16.121 24.0785 14.8551C23.3548 13.5891 22.2319 12.5978 20.885 12.0354C19.538 11.4731 18.0425 11.3714 16.6316 11.7462C15.2207 12.121 13.9736 12.9512 13.0847 14.1075C12.1957 15.2637 11.7149 16.6811 11.717 18.1387C11.7158 19.3472 12.0506 20.5324 12.6842 21.5623L12.857 21.8468L12.1936 24.3096L14.6838 23.6473Z" fill="white"/>
<path fill-rule="evenodd" clip-rule="evenodd" d="M21.3747 19.2715C21.2131 19.1413 21.0239 19.0498 20.8215 19.0037C20.6191 18.9576 20.4088 18.9583 20.2067 19.0056C19.903 19.1315 19.7068 19.6073 19.5105 19.8452C19.4691 19.9022 19.4083 19.9422 19.3395 19.9577C19.2707 19.9731 19.1986 19.963 19.1368 19.9291C18.025 19.4944 17.093 18.6972 16.4924 17.6669C16.4411 17.6026 16.4169 17.521 16.4247 17.4392C16.4326 17.3574 16.4719 17.2819 16.5344 17.2285C16.7533 17.0122 16.914 16.7443 17.0016 16.4495C17.0211 16.1244 16.9465 15.8006 16.7867 15.5167C16.6632 15.1186 16.4281 14.7641 16.1092 14.4952C15.9448 14.4213 15.7624 14.3966 15.5842 14.4239C15.406 14.4512 15.2394 14.5294 15.1047 14.6491C14.8709 14.8505 14.6853 15.1018 14.5616 15.3843C14.4379 15.6668 14.3792 15.9735 14.3899 16.2816C14.3906 16.4547 14.4126 16.627 14.4553 16.7947C14.5638 17.1977 14.7307 17.5826 14.9506 17.9375C15.1092 18.2093 15.2823 18.4724 15.4692 18.7257C16.0763 19.5578 16.8395 20.2644 17.7164 20.806C18.1565 21.0813 18.6268 21.3051 19.1181 21.473C19.6284 21.704 20.1919 21.7926 20.7486 21.7296C21.0658 21.6816 21.3664 21.5566 21.6238 21.3655C21.8813 21.1743 22.0877 20.923 22.225 20.6335C22.3057 20.4586 22.3301 20.2631 22.2951 20.0737C22.211 19.6866 21.6924 19.458 21.3747 19.2715Z" fill="white"/>
</g>
<defs>
<filter id="filter0_i_1_555" x="10.0137" y="9.93262" width="16.5547" height="16.7245" filterUnits="userSpaceOnUse" color-interpolation-filters="sRGB">
<feFlood flood-opacity="0" result="BackgroundImageFix"/>
<feBlend mode="normal" in="SourceGraphic" in2="BackgroundImageFix" result="shape"/>
<feColorMatrix in="SourceAlpha" type="matrix" values="0 0 0 0 0 0 0 0 0 0 0 0 0 0 0 0 0 0 127 0" result="hardAlpha"/>
<feOffset dy="0.169835"/>
<feGaussianBlur stdDeviation="0.424587"/>
<feComposite in2="hardAlpha" operator="arithmetic" k2="-1" k3="1"/>
<feColorMatrix type="matrix" values="0 0 0 0 0 0 0 0 0 0 0 0 0 0 0 0 0 0 0.1 0"/>
<feBlend mode="normal" in2="shape" result="effect1_innerShadow_1_555"/>
</filter>
<clipPath id="clip0_1_555">
<rect width="16.5547" height="16.5547" fill="white" transform="translate(10.0137 9.93262)"/>
</clipPath>
</defs>
</svg>
