<svg width="23" height="23" viewBox="0 0 23 23" fill="none" xmlns="http://www.w3.org/2000/svg">
<path fill-rule="evenodd" clip-rule="evenodd" d="M11.4994 1.9165C11.8623 1.9165 12.1942 2.12159 12.3565 2.44626L20.9815 19.6963C21.1468 20.0269 21.1072 20.4232 20.8797 20.7146C20.6522 21.006 20.2774 21.1406 19.9165 21.0604L11.4994 19.1899L3.08225 21.0604C2.72135 21.1406 2.34651 21.006 2.11899 20.7146C1.89148 20.4232 1.85186 20.0269 2.0172 19.6963L10.6422 2.44626C10.8045 2.12159 11.1364 1.9165 11.4994 1.9165ZM12.4577 17.4394L18.3668 18.7526L12.4577 6.9344V17.4394ZM10.541 6.9344V17.4394L4.63195 18.7526L10.541 6.9344Z" fill="black"/>
</svg>
