<svg width="90" height="33" viewBox="0 0 90 33" fill="none" xmlns="http://www.w3.org/2000/svg">
<path fill-rule="evenodd" clip-rule="evenodd" d="M0.0134777 0.762455V0.985847H1.38152H2.74955V16.3973V31.8088L1.40685 31.8337L0.0641458 31.8587L0.0321236 32.1044L0 32.3501H7.607H15.2139V28.0994V23.8488L14.9859 23.8773C14.7696 23.9045 14.7545 23.9573 14.6921 24.9052C14.5647 26.8408 14.0917 28.6853 13.4778 29.6408C13.3143 29.8954 12.931 30.3047 12.6262 30.5504C11.6097 31.3696 10.4957 31.695 8.39905 31.7853L7.10701 31.841V24.0405V16.24L7.80745 16.2917C8.74785 16.3612 9.42872 16.6347 9.99833 17.1718C10.8424 17.9675 11.2139 19.0063 11.3281 20.8901C11.3931 21.9633 11.3991 21.9847 11.6328 21.9847H11.8712L11.8452 16.0201C11.8194 10.1228 11.8168 10.0556 11.6165 10.0556C11.4298 10.0556 11.4086 10.1345 11.348 11.0555C11.2564 12.4467 11.0931 13.2085 10.7485 13.8508C10.0892 15.0802 9.26588 15.6115 7.87686 15.7042L7.10701 15.7556V8.35699V0.958414L8.29771 1.01533C10.2633 1.10934 11.1847 1.40663 12.2838 2.30145C13.4864 3.28053 14.0554 4.91156 14.3577 8.24609C14.4124 8.84943 14.4455 8.93861 14.6145 8.93861C14.8029 8.93861 14.8086 8.81664 14.8086 4.73884V0.539062H7.41102H0.0134777V0.762455ZM25.3658 0.740116C25.3974 0.936075 25.4336 0.941794 26.7919 0.96601L28.1855 0.990851L28.1599 16.4248L28.1343 31.8587L26.7409 31.8835L25.3475 31.9083V32.1292V32.3501H32.9477H40.5479V28.1503C40.5479 24.0986 40.5413 23.9506 40.3573 23.9506C40.1885 23.9506 40.1588 24.0501 40.0976 24.8218C39.9457 26.7357 39.5369 28.4204 38.9722 29.4591C38.1414 30.9872 36.219 31.814 33.4962 31.814H32.4411V16.3999V0.985847H33.7078H34.9745V0.762455V0.539062H30.1539H25.3334L25.3658 0.740116ZM49.7878 0.740116C49.8193 0.935628 49.8575 0.941883 51.1629 0.966099L52.5056 0.99103V16.4472V31.9033H51.1376H49.7695V32.1267V32.3501H57.3698H64.97V28.1503C64.97 24.0624 64.9648 23.9506 64.7746 23.9506C64.6107 23.9506 64.5702 24.0335 64.5235 24.4644C64.228 27.1888 63.967 28.3258 63.3907 29.4013C62.5384 30.9919 60.6737 31.814 57.9182 31.814H56.8631V16.3999V0.985847H58.0791H59.2951V0.762455V0.539062H54.5252H49.7555L49.7878 0.740116ZM74.7996 0.762455V0.985847H76.1676H77.5357V16.3973V31.8088L76.1929 31.8337L74.8502 31.8587L74.8182 32.1044L74.7861 32.3501H82.3931H90V28.1057C90 24.0008 89.9937 23.8612 89.8082 23.8612C89.5537 23.8612 89.4937 24.0275 89.4913 24.7398C89.4887 25.5409 89.2543 27.0462 88.9877 27.9736C88.6695 29.081 88.1873 29.907 87.5486 30.4391C86.4378 31.3644 85.3719 31.6974 83.2358 31.7859L81.8931 31.8415V24.0407V16.24L82.5771 16.2929C83.5738 16.3699 84.1358 16.572 84.6618 17.0424C85.5948 17.8769 86.0144 18.9728 86.1177 20.8454C86.1795 21.9664 86.1844 21.9847 86.419 21.9847H86.6573L86.6313 16.0201C86.6055 10.1228 86.6029 10.0556 86.4026 10.0556C86.2144 10.0556 86.1948 10.1361 86.1286 11.1855C86.0461 12.4928 85.8448 13.3558 85.4751 13.9873C84.8104 15.1231 84.0053 15.6146 82.663 15.7042L81.8931 15.7556V8.35699V0.958414L83.0838 1.01533C85.021 1.108 86.1136 1.4606 87.1409 2.32459C88.2517 3.25891 88.8935 5.11119 89.1459 8.11206C89.207 8.83817 89.2385 8.93861 89.4051 8.93861C89.5876 8.93861 89.5947 8.7825 89.5947 4.73884V0.539062H82.1971H74.7996V0.762455Z" fill="black"/>
</svg>
