<svg width="128" height="33" viewBox="0 0 128 33" fill="none" xmlns="http://www.w3.org/2000/svg">
<path fill-rule="evenodd" clip-rule="evenodd" d="M64.4635 0.138165C62.7234 0.48575 60.8112 1.62695 59.0535 3.36686C56.3965 5.99706 54.5445 9.4697 53.7947 13.2277C53.4351 15.0302 53.4294 18.5417 53.7832 20.3798C55.1684 27.5785 60.4158 32.767 66.325 32.7813C67.5336 32.7843 68.4302 32.5591 70.267 31.7913C73.0893 30.6113 73.6812 30.4291 74.7249 30.4186C75.4912 30.4109 75.7431 30.4534 76.1165 30.6534C76.5949 30.9097 77.3666 31.7254 77.3666 31.9748C77.3666 32.0989 77.5332 32.1793 77.6121 32.093C77.626 32.0778 77.6631 29.2066 77.6947 25.7125L77.7519 19.3596L79.0089 19.3044C79.8757 19.2663 80.28 19.2063 80.3114 19.111C80.3364 19.0351 80.2662 18.9704 80.1551 18.9674C79.9658 18.9621 70.7601 18.9649 69.8451 18.9704C69.5573 18.9722 69.4376 19.0169 69.4687 19.111C69.5006 19.208 69.9372 19.2656 70.9363 19.3044L72.3583 19.3596L72.3921 23.5028C72.4151 26.3324 72.3856 27.8387 72.2989 28.2536C71.7583 30.8404 69.5522 32.3471 66.2493 32.3849C64.9565 32.3997 64.3161 32.2274 63.3874 31.6152C61.3028 30.241 60.0649 27.0138 59.4072 21.2379C59.2141 19.5425 59.216 12.2506 59.41 10.5761C59.8965 6.37524 60.6399 4.00369 62.013 2.27229C64.2384 -0.534134 68.5377 -0.269855 71.4733 2.85366C72.3065 3.7403 72.9459 4.68505 73.5965 5.99098C74.2864 7.37579 75.0364 9.49135 75.2613 10.6866C75.3055 10.9219 75.398 11.0733 75.4973 11.0733C75.6389 11.0733 75.6643 10.3584 75.6891 5.66615C75.7052 2.61965 75.675 0.216167 75.6199 0.160815C75.563 0.103694 75.2778 0.28058 74.9367 0.584634C73.5 1.86537 72.4569 1.93398 70.0468 0.906254C68.1035 0.0776191 66.1276 -0.194283 64.4635 0.138165ZM35.0988 0.459123C32.6621 1.11386 30.7829 2.28024 28.8202 4.35614C26.8925 6.39513 25.507 8.8027 24.7324 11.46C24.2957 12.9579 23.9841 15.0502 23.9825 16.4941C23.9807 18.1057 24.3838 20.5426 24.9409 22.2875C25.3097 23.443 26.5028 25.8324 27.2303 26.8726C27.92 27.8588 29.8721 29.8276 30.825 30.498C32.7098 31.8241 35.4974 32.7835 37.4654 32.7835C38.7327 32.7835 40.9866 32.2112 42.2514 31.5682C46.2473 29.5369 49.4814 25.405 50.6509 20.8371C51.1409 18.9237 51.2125 18.3303 51.203 16.2661C51.1913 13.7619 50.8615 11.8584 50.1022 9.91318C48.2005 5.04103 44.5796 1.61358 40.1071 0.452162C38.7146 0.0905457 36.4589 0.0937501 35.0988 0.459123ZM39.8834 0.827037C41.9334 1.56209 43.3212 3.15031 44.2158 5.78482C45.2226 8.75033 45.5693 12.3019 45.4277 18.1995C45.3062 23.2616 44.7567 26.2486 43.4867 28.7508C42.9018 29.903 41.6984 31.2039 40.7483 31.7109C38.9481 32.6715 36.3977 32.6771 34.3424 31.7251C32.741 30.9832 31.4172 29.1877 30.7649 26.8726C30.0509 24.3386 29.8158 21.8621 29.8158 16.8737C29.8158 12.7219 29.9507 10.8017 30.4067 8.46064C31.2722 4.01805 33.138 1.35062 35.8693 0.651035C37.0448 0.349964 38.7631 0.425315 39.8834 0.827037ZM0.0407013 0.963927C-0.122756 1.22942 0.173449 1.29538 1.52932 1.29538C3.19043 1.29538 2.96159 1.10281 3.66418 3.09142C4.15862 4.49093 5.28269 7.54141 7.52123 13.5592C7.98464 14.8049 8.48029 16.1473 8.62261 16.5423C8.76494 16.9372 9.02889 17.6582 9.2093 18.1443C9.80237 19.743 10.7872 22.4325 11.2119 23.6133C12.3917 26.8935 13.9649 31.3301 13.9649 31.3772C13.9649 31.4067 14.044 31.6208 14.1408 31.8531C14.3815 32.4316 14.3401 32.5253 15.5626 28.6403C15.8494 27.7288 16.2456 26.4859 16.4432 25.8782C16.7684 24.8772 17.1247 23.7619 18.6667 18.9177C18.9375 18.067 19.2987 16.9483 19.4693 16.4318C19.6399 15.9153 20.1833 14.2248 20.6771 12.6753C21.1708 11.1258 21.7909 9.18675 22.0551 8.3664C22.3193 7.54605 22.9112 5.70648 23.3707 4.27847C23.83 2.85045 24.2525 1.6075 24.3095 1.51635C24.3891 1.38907 24.7268 1.33781 25.7659 1.29538C26.8704 1.2503 27.1185 1.20976 27.1185 1.07441C27.1185 0.931887 26.6988 0.904597 24.1191 0.879296C21.1753 0.85046 21.1196 0.853995 21.1196 1.07264C21.1196 1.28356 21.1895 1.29538 22.4405 1.29538C23.754 1.29538 23.7613 1.29682 23.7613 1.55524C23.7613 1.69821 23.4948 2.63048 23.169 3.62683C22.8432 4.62329 22.2473 6.45778 21.8445 7.70349C21.4419 8.94921 20.8462 10.7888 20.5207 11.7914C20.1953 12.7941 19.4251 15.1805 18.8093 17.0947C18.1934 19.0088 17.4955 21.1621 17.2581 21.8798C17.0209 22.5974 16.8268 23.2561 16.8268 23.3437C16.8268 23.5682 16.5354 23.542 16.4449 23.3095C16.4035 23.2032 16.0717 22.2958 15.7074 21.2931C14.9642 19.2474 14.2354 17.2551 13.3632 14.885C13.0389 14.0039 12.4661 12.4378 12.0902 11.4047C11.7143 10.3717 10.9872 8.38297 10.4744 6.98534C9.96154 5.58771 9.42713 4.12103 9.28679 3.72604C9.14656 3.33106 8.90506 2.66484 8.7503 2.24544C8.59543 1.82604 8.49482 1.44078 8.52652 1.38918C8.55833 1.33759 9.17573 1.29538 9.89869 1.29538C11.1396 1.29538 11.2131 1.28301 11.2131 1.07441C11.2131 0.856315 11.1396 0.853443 5.66089 0.853443C2.07814 0.853443 0.0846202 0.892665 0.0407013 0.963927ZM78.8533 1.07342C78.6917 1.33582 78.9802 1.40587 80.2216 1.40587C81.1476 1.40587 81.5563 1.44686 81.64 1.54795C81.721 1.64606 81.7709 5.30509 81.8007 13.3422C81.8471 25.8826 81.8295 25.4919 82.4224 27.193C83.2413 29.5427 85.2307 31.434 87.7263 32.2356C89.8961 32.9324 92.9734 33.1942 94.9232 32.8477C98.4035 32.2292 100.645 30.279 101.599 27.0383L101.844 26.2097L101.883 13.8944C101.913 4.42099 101.953 1.55944 102.055 1.49414C102.128 1.44741 103.358 1.40852 104.789 1.40752C106.846 1.4062 107.415 1.43724 107.513 1.55579C107.604 1.66562 107.63 5.7299 107.61 16.7751L107.582 31.8444L106.352 31.8996C105.676 31.93 105.089 31.9889 105.048 32.0303C104.759 32.3219 105.485 32.3416 116.559 32.3416H128V26.2649C128 22.754 127.958 20.1883 127.901 20.1883C127.847 20.1883 127.747 20.6233 127.678 21.155C127.405 23.2816 127.027 24.7419 126.402 26.0803C125.235 28.5821 123.38 30.3832 121.128 31.2025C119.56 31.7731 118.351 31.9184 115.507 31.8784L113.085 31.8444V16.3765L114.272 16.3452C115.209 16.3203 115.613 16.3604 116.198 16.5361C118.241 17.1498 119.629 18.9697 120.078 21.6246C120.155 22.0803 120.26 22.5004 120.312 22.5582C120.363 22.6158 120.405 19.7695 120.405 16.2329C120.405 10.3286 120.331 8.69896 120.145 10.4893C119.839 13.4252 118.534 15.1599 116.22 15.7074C115.471 15.8844 113.404 15.9389 113.167 15.7878C113.058 15.7182 113.034 14.2026 113.057 8.5803L113.085 1.46111L116.112 1.4673C118.909 1.47304 119.206 1.49249 120.02 1.72274C121.833 2.23594 123.405 3.22864 124.474 4.53634C125.794 6.14919 127.009 9.51268 127.009 11.5495C127.009 12.3211 127.185 12.2792 127.268 11.4876C127.387 10.3588 127.351 1.41238 127.226 1.17882C127.114 0.968236 126.899 0.963927 116.401 0.963927C103.997 0.963927 98.0342 1.05077 98.0936 1.23053C98.1188 1.30687 98.6515 1.36046 99.5553 1.37758C100.337 1.3925 101.09 1.43106 101.228 1.46332L101.479 1.52221L101.445 13.9764C101.411 26.4224 101.411 26.4311 101.173 27.1355C100.676 28.602 100.058 29.5771 99.0443 30.4982C97.3988 31.9929 94.4848 32.8915 92.3751 32.5547C90.0701 32.1868 88.7052 31.2185 87.8204 29.3231C87.0281 27.6261 87.0416 27.9043 87.0768 13.9827C87.094 7.19703 87.1491 1.60374 87.1993 1.55314C87.2495 1.50254 87.943 1.43625 88.7403 1.40587C89.9312 1.36046 90.1901 1.32101 90.1901 1.1849C90.1901 1.04016 89.478 1.01552 84.556 0.990554C80.8542 0.971771 78.8983 1.00017 78.8533 1.07342Z" fill="black"/>
<path d="M37.8559 15.0364C37.7472 15.0364 37.6585 15.0471 37.5899 15.0684C37.5213 15.0874 37.4681 15.1195 37.4303 15.1646C37.3924 15.2073 37.3664 15.2654 37.3522 15.339C37.3381 15.4102 37.331 15.4981 37.331 15.6025V17.0837C37.331 17.3329 37.3073 17.5561 37.26 17.7531C37.2151 17.9477 37.1382 18.1127 37.0294 18.248C36.923 18.3833 36.7799 18.4877 36.6002 18.5613C36.4205 18.6325 36.197 18.6681 35.9298 18.6681C35.6342 18.6681 35.393 18.6313 35.2061 18.5578C35.0217 18.4842 34.8774 18.3774 34.7734 18.2373C34.6693 18.0949 34.5984 17.9216 34.5605 17.7175C34.5251 17.511 34.5073 17.276 34.5073 17.0125V15.5811C34.5073 15.4814 34.5026 15.3972 34.4931 15.3283C34.4837 15.2595 34.4624 15.2037 34.4293 15.161C34.3986 15.1159 34.3513 15.0839 34.2874 15.0649C34.2259 15.0459 34.142 15.0364 34.0356 15.0364V14.9402H35.4935V15.0364C35.3894 15.0364 35.3067 15.0459 35.2452 15.0649C35.1837 15.0839 35.1364 15.1159 35.1033 15.161C35.0702 15.2037 35.0477 15.2595 35.0359 15.3283C35.0264 15.3972 35.0217 15.4814 35.0217 15.5811V17.1727C35.0217 17.3412 35.0323 17.5026 35.0536 17.6569C35.0773 17.8089 35.1222 17.943 35.1884 18.0593C35.257 18.1732 35.3528 18.2646 35.4757 18.3334C35.6011 18.3999 35.7642 18.4331 35.9653 18.4331C36.1284 18.4331 36.2845 18.407 36.4335 18.3548C36.5825 18.3026 36.7173 18.2195 36.8379 18.1056C36.897 18.051 36.9431 17.9798 36.9762 17.8919C37.0093 17.8017 37.0342 17.708 37.0507 17.6107C37.0673 17.511 37.0767 17.4124 37.0791 17.3151C37.0838 17.2178 37.0862 17.1312 37.0862 17.0552V15.5811C37.0862 15.4672 37.0803 15.3758 37.0685 15.307C37.059 15.2358 37.0354 15.18 36.9975 15.1396C36.962 15.0993 36.91 15.072 36.8414 15.0577C36.7729 15.0435 36.6818 15.0364 36.5683 15.0364V14.9402H37.8559V15.0364Z" fill="black"/>
<path d="M39.7499 18.5791V18.4759C39.7901 18.4759 39.8315 18.4735 39.8741 18.4687C39.9166 18.4616 39.9556 18.4498 39.9911 18.4331C40.0266 18.4165 40.0561 18.394 40.0798 18.3655C40.1034 18.3346 40.1153 18.2943 40.1153 18.2444C40.1153 18.197 40.1011 18.1305 40.0727 18.045C40.0443 17.9596 40.0124 17.8718 39.9769 17.7816C39.9415 17.6914 39.906 17.6071 39.8705 17.5288C39.835 17.4504 39.8102 17.3946 39.796 17.3614H38.3913C38.3818 17.3804 38.3665 17.4124 38.3452 17.4575C38.3263 17.5003 38.3038 17.5501 38.2778 17.6071C38.2518 17.6617 38.2258 17.7198 38.1998 17.7816C38.1737 17.8433 38.1489 17.9038 38.1253 17.9631C38.104 18.0225 38.0862 18.0771 38.0721 18.1269C38.0579 18.1768 38.0508 18.2159 38.0508 18.2444C38.0508 18.2919 38.0661 18.3311 38.0969 18.3619C38.1276 18.3904 38.1655 18.413 38.2104 18.4296C38.2553 18.4462 38.3014 18.4581 38.3487 18.4652C38.396 18.4699 38.4374 18.4735 38.4729 18.4759V18.5791H37.3307V18.4759C37.4158 18.4711 37.4879 18.4521 37.5471 18.4189C37.6062 18.3833 37.6582 18.3382 37.7031 18.2836C37.7481 18.2266 37.7871 18.1625 37.8202 18.0913C37.8557 18.0177 37.8911 17.9394 37.9266 17.8563L39.2072 14.8619H39.2994L40.5587 17.8777C40.5942 17.9608 40.6273 18.0379 40.658 18.1091C40.6911 18.178 40.7301 18.2397 40.7751 18.2943C40.82 18.3465 40.8744 18.3892 40.9382 18.4225C41.0021 18.4533 41.0837 18.4711 41.183 18.4759V18.5791H39.7499ZM39.1043 15.6844L38.4729 17.1656H39.7215L39.1043 15.6844Z" fill="black"/>
</svg>
